<?xml version="1.0" encoding="UTF-8" standalone="no"?>
<!-- Created with Inkscape (http://www.inkscape.org/) -->

<svg
   width="80.80394mm"
   height="98.3946mm"
   viewBox="0 0 80.80394 98.3946"
   version="1.1"
   id="svg1"
   xml:space="preserve"
   inkscape:version="1.3.2 (091e20e, 2023-11-25, custom)"
   sodipodi:docname="02.svg"
   xmlns:inkscape="http://www.inkscape.org/namespaces/inkscape"
   xmlns:sodipodi="http://sodipodi.sourceforge.net/DTD/sodipodi-0.dtd"
   xmlns="http://www.w3.org/2000/svg"
   xmlns:svg="http://www.w3.org/2000/svg"><sodipodi:namedview
     id="namedview1"
     pagecolor="#ffffff"
     bordercolor="#000000"
     borderopacity="0.25"
     inkscape:showpageshadow="2"
     inkscape:pageopacity="0.0"
     inkscape:pagecheckerboard="0"
     inkscape:deskcolor="#d1d1d1"
     inkscape:document-units="mm"
     showgrid="false"
     inkscape:zoom="0.72426347"
     inkscape:cx="151.87843"
     inkscape:cy="319.63506"
     inkscape:window-width="1920"
     inkscape:window-height="1009"
     inkscape:window-x="-8"
     inkscape:window-y="-8"
     inkscape:window-maximized="1"
     inkscape:current-layer="layer1" /><defs
     id="defs1" /><g
     inkscape:label="Layer 1"
     inkscape:groupmode="layer"
     id="layer1"
     transform="translate(-64.598029,-63.933766)"><path
       style="fill:#000000"
       d="m 86.028438,162.14912 c 0,-0.40136 4.538453,-6.95671 5.656966,-8.17093 1.134548,-1.23162 1.201596,-1.26632 1.157137,-0.59884 -0.02596,0.38969 -0.130545,0.65701 -0.232419,0.59405 -0.101873,-0.063 -0.536673,0.33258 -0.966221,0.87897 -0.721279,0.91749 -0.792282,1.20588 -0.928585,3.77157 -0.08117,1.52797 -0.229166,2.98649 -0.328873,3.24115 -0.151346,0.38655 -0.526182,0.46302 -2.269645,0.46302 -1.148598,0 -2.08836,-0.0805 -2.08836,-0.17899 z m 5.291667,0.0928 c 0,-0.39542 0.843055,-5.85985 1.048015,-6.79294 l 0.261533,-1.19062 -0.136056,1.45521 c -0.07483,0.80036 -0.198229,2.34818 -0.274219,3.43958 -0.173263,2.4885 -0.311587,3.175 -0.63973,3.175 -0.142749,0 -0.259543,-0.0388 -0.259543,-0.0862 z m 2.116667,-1.47323 c 0,-2.41119 0.502854,-6.88525 0.95051,-8.457 0.222048,-0.77962 0.342281,-1.47894 0.267185,-1.55404 -0.303299,-0.3033 -0.997145,0.2357 -1.350697,1.04926 -0.206499,0.47517 -0.380112,0.70921 -0.385808,0.52008 -0.0155,-0.51463 0.725648,-1.84174 1.097836,-1.96581 0.228932,-0.0763 0.002,-0.9277 -0.764341,-2.86817 -0.599455,-1.51781 -1.130412,-2.98198 -1.179906,-3.25371 -0.06829,-0.37495 -0.695964,-0.67053 -2.603529,-1.22606 -1.382448,-0.40259 -2.857477,-0.86821 -3.277841,-1.03469 -0.420364,-0.16649 -0.785846,-0.26961 -0.812182,-0.22916 -0.02634,0.0404 -0.196154,0.5498 -0.377372,1.13188 -0.181219,0.58209 -0.390547,1.23693 -0.465174,1.45521 -0.07463,0.21828 0.349828,-0.10453 0.943233,-0.71736 1.301333,-1.34392 1.377931,-1.16303 0.191731,0.45281 -0.830479,1.13127 -1.38536,1.50552 -3.676875,2.47992 -0.990229,0.42107 -1.322018,0.23983 -0.62299,-0.34031 0.617139,-0.51218 0.902821,-3.29208 0.613039,-5.96534 -0.08309,-0.76653 -2.19033,-2.52749 -4.287149,-3.58263 -3.353361,-1.68746 -7.611352,-6.45613 -9.554398,-10.7003 -1.08579,-2.37168 -1.908067,-8.08512 -1.163608,-8.08512 0.146186,0 0.264584,0.69145 0.264584,1.54517 0,2.1906 0.83241,5.17042 2.244024,8.03305 1.081465,2.19312 3.392977,5.44674 3.898677,5.48768 0.104267,0.008 -0.327364,-0.72879 -0.95918,-1.6383 -1.166989,-1.67989 -2.392406,-3.9026 -2.151567,-3.9026 0.07276,0 0.361122,0.44648 0.640804,0.99219 0.756811,1.47665 2.973236,4.42806 4.573274,6.08981 0.941018,0.97731 1.976377,1.71932 3.107252,2.22686 2.034935,0.91329 2.606716,0.85959 1.145251,-0.10756 -2.019246,-1.33627 -4.013261,-4.39354 -4.026057,-6.17284 -0.0041,-0.57143 -0.276929,-1.07077 -0.931853,-1.70554 -0.509323,-0.49366 -0.926041,-1.04006 -0.926041,-1.21422 0,-0.17417 -0.168832,-0.38146 -0.375181,-0.46064 -0.999111,-0.3834 -4.058106,-7.10735 -3.793064,-8.3375 0.05198,-0.24128 0.253419,0.21616 0.447635,1.01652 0.398468,1.64209 2.584397,6.51607 2.81774,6.28273 0.0836,-0.0836 0.02328,-0.39249 -0.134027,-0.68642 -0.720789,-1.34681 -0.165076,-0.77911 0.996777,1.01827 0.7055,1.09141 2.122657,2.78805 3.149239,3.77032 1.84917,1.76934 2.868739,2.44193 1.633356,1.07749 l -0.641433,-0.70844 0.896681,0.62036 c 0.493175,0.3412 0.845197,0.51117 0.782272,0.37771 -0.88587,-1.87883 -1.273593,-2.85286 -1.174894,-2.95156 0.06627,-0.0663 0.381166,0.39707 0.699777,1.02963 0.318611,0.63257 0.994122,1.73315 1.501136,2.44574 0.680108,0.95587 0.793222,1.24364 0.431352,1.09742 -0.26977,-0.10901 -0.847678,-0.32397 -1.284241,-0.47769 -0.436562,-0.15372 -1.291452,-0.61779 -1.899755,-1.03127 -1.339355,-0.9104 -1.407537,-0.9167 -1.407537,-0.13003 0,0.84625 1.286817,2.57887 3.584696,4.82657 1.485051,1.45262 1.77495,1.84904 1.28349,1.75509 -1.045996,-0.19995 -0.734657,0.12329 1.216125,1.2626 2.349259,1.37204 6.156852,2.7528 10.053117,3.64559 2.817901,0.64569 3.498474,0.6976 9.130275,0.69642 6.71307,-0.001 7.31953,-0.0982 13.36146,-2.13259 2.67554,-0.90089 3.91782,-1.67485 4.54461,-2.83138 0.2464,-0.45465 0.18219,-0.47595 -0.88267,-0.29284 -0.63161,0.10862 -1.56511,0.22489 -2.07444,0.2584 -0.50932,0.0335 -1.75947,0.15018 -2.77812,0.25927 -2.35244,0.25194 -2.11104,-0.0798 0.3026,-0.41592 2.94442,-0.40998 5.95694,-1.28444 7.32693,-2.12682 0.70374,-0.43272 1.20221,-0.66165 1.1077,-0.50874 -0.0945,0.15291 -0.53253,0.46455 -0.97339,0.69253 -0.44086,0.22797 -0.73545,0.4806 -0.65466,0.5614 0.0808,0.0808 1.07412,-0.28684 2.2074,-0.81695 1.24311,-0.58149 1.79811,-0.7556 1.39905,-0.43891 -0.36381,0.28871 -1.52454,0.91545 -2.5794,1.39275 -1.05487,0.4773 -1.91807,0.96343 -1.91823,1.08029 -1.6e-4,0.11686 -0.29479,0.64587 -0.65474,1.17558 -0.87589,1.28899 -0.61851,1.42581 0.59227,0.31486 0.76962,-0.70617 0.72484,-0.62434 -0.2024,0.36993 -1.23144,1.32044 -3.33856,2.74659 -3.62897,2.45617 -0.091,-0.091 0.11371,-0.46266 0.45494,-0.82589 0.658,-0.70041 0.55822,-0.83671 -0.28295,-0.38652 -0.69811,0.37361 -0.65014,1.27504 0.0835,1.56994 0.56688,0.22786 0.55964,0.24009 -0.15169,0.25606 -1.32258,0.0297 -0.76047,0.87267 1.01515,1.5224 1.84819,0.67628 2.99454,0.79803 2.55768,0.27164 -0.40205,-0.48443 -0.8647,-1.77727 -0.63601,-1.77727 0.21047,0 1.38398,2.10617 1.38279,2.48181 -10e-4,0.43575 -2.40214,-0.0359 -3.75474,-0.73765 -0.74131,-0.3846 -1.37566,-0.66648 -1.40968,-0.6264 -0.034,0.0401 -0.17487,0.87654 -0.31302,1.8588 -0.24818,1.76466 -0.24385,1.78594 0.36381,1.78594 0.65516,0 1.66957,0.83925 1.67896,1.38906 0.003,0.1819 0.45454,0.64804 1.00319,1.03586 0.54865,0.38782 1.44397,1.22126 1.98961,1.85208 0.54564,0.63083 1.71354,1.97588 2.59535,2.989 1.61704,1.85784 3.34225,4.20172 4.43788,6.02931 l 0.59481,0.99219 h -4.11758 -4.11758 l -0.20348,-0.7276 c -0.30308,-1.08377 -0.17576,-6.37618 0.18557,-7.71373 0.27927,-1.03381 0.25741,-1.24279 -0.19375,-1.85209 -0.61445,-0.82983 -2.04278,-1.83298 -2.92525,-2.05446 -0.3891,-0.0977 -0.97232,0.0179 -1.47093,0.29148 l -0.8262,0.45329 0.62463,-0.54844 c 0.34354,-0.30165 0.90909,-0.54845 1.25677,-0.54845 0.8349,0 0.82859,-0.71559 -0.01,-1.09753 -0.54401,-0.24786 -0.82561,-0.17643 -1.84766,0.46869 -1.71007,1.07941 -1.82727,1.67495 -1.60305,8.14597 0.21697,6.26191 -0.16458,6.80497 -0.65385,0.93062 -0.43382,-5.20862 0.0951,-8.18685 1.59678,-8.99051 0.87869,-0.47026 0.34591,-0.62588 -0.61125,-0.17854 -0.47814,0.22346 -1.29221,0.58029 -1.80904,0.79295 -0.74131,0.30502 -1.00717,0.61186 -1.2593,1.4534 -0.18435,0.6153 -0.82086,1.57519 -1.50403,2.26816 -1.32288,1.34187 -5.97356,4.92536 -7.24636,5.58356 -0.56806,0.29375 -0.82458,0.61978 -0.82458,1.04799 0,0.34188 -0.0744,0.99367 -0.16537,1.44842 -0.13879,0.69395 -0.286539,0.82682 -0.919422,0.82682 -0.822883,0 -0.815985,0.0771 -0.240879,-2.69138 0.196823,-0.94748 0.186446,-0.96458 -0.418087,-0.68914 -0.511205,0.23292 -0.650654,0.55411 -0.795173,1.83149 l -0.175254,1.54903 h -0.896907 c -0.84435,0 -0.886684,-0.0426 -0.722443,-0.7276 0.356673,-1.48751 0.958342,-2.21603 3.0278,-3.66613 l 2.122195,-1.48707 -1.135835,-0.80675 c -0.624709,-0.44372 -1.984426,-1.63312 -3.021594,-2.64312 -1.241445,-1.20893 -1.951579,-1.72987 -2.078397,-1.52468 -0.14736,0.23844 -0.931076,7.7943 -0.878553,8.4702 0.0058,0.0749 -0.0035,0.64221 -0.02075,1.26067 -0.04826,1.73199 -0.560499,1.33445 -0.560499,-0.43498 z m 14.331008,-10.30335 c 0.83369,-0.32842 0.91906,-0.57791 1.14654,-3.35073 0.0955,-1.16417 0.23691,-2.38456 0.31423,-2.71198 0.19667,-0.83282 -0.20479,-0.77215 -2.95568,0.44665 -1.29347,0.57308 -3.15062,1.23773 -4.127,1.47701 l -1.77524,0.43504 0.25065,0.9078 c 0.13786,0.49929 0.17639,1.02796 0.0856,1.17484 -0.16993,0.27495 2.10186,1.40393 3.97381,1.9748 1.02399,0.31228 1.55006,0.25205 3.08707,-0.35343 z m -10.555616,-0.64007 0.732683,-0.59399 -0.615891,-2.38125 -0.61589,-2.38125 -1.503635,-0.13527 c -1.756948,-0.15805 -1.741753,-0.32918 -0.270437,3.04568 0.507534,1.16417 0.98636,2.32503 1.064059,2.57969 0.182654,0.59866 0.325328,0.58289 1.209111,-0.13361 z m 14.310136,-0.62896 c 0.78742,-0.37549 0.92697,-0.59125 1.06953,-1.65364 0.0902,-0.672 0.39732,-1.98956 0.68254,-2.92792 0.28522,-0.93837 0.46985,-1.75484 0.4103,-1.8144 -0.12883,-0.12883 -2.84285,0.50811 -3.08725,0.72453 -0.25134,0.22256 -0.43434,6.10327 -0.18993,6.10327 0.11509,0 0.61675,-0.19433 1.11481,-0.43184 z m 2.94701,-1.94941 c 0.16668,-1.13185 0.68787,-3.4084 1.07516,-4.69635 0.20524,-0.68252 0.12932,-0.71 -0.79629,-0.28826 -0.37065,0.16888 -0.67489,0.4963 -0.67608,0.7276 -0.001,0.2313 -0.12387,1.48286 -0.27261,2.78123 -0.21091,1.84109 -0.19756,2.40571 0.0607,2.5653 0.42581,0.26317 0.40428,0.30167 0.60916,-1.08952 z m -14.41795,0.54219 c 0,-0.28388 -0.128932,-1.11732 -0.286512,-1.85208 -0.227641,-1.06146 -0.394712,-1.33594 -0.81315,-1.33594 -0.574751,0 -0.576739,-0.0271 0.159968,2.18281 0.506161,1.51835 0.939694,1.98211 0.939694,1.00521 z m -16.711085,-3.05468 c 0.486042,-0.64527 1.106647,-1.61049 1.379122,-2.14493 l 0.495408,-0.97172 -1.484838,-0.89412 c -0.816661,-0.49177 -1.5271,-0.85186 -1.578752,-0.80021 -0.05165,0.0516 0.0412,0.48149 0.206336,0.95521 0.281705,0.8081 0.202652,2.55715 -0.195151,4.31774 -0.235556,1.04252 0.162114,0.88655 1.177875,-0.46197 z M 73.419738,126.4657 c -0.08617,-0.22456 -0.213418,-0.35155 -0.282773,-0.28219 -0.06936,0.0693 -0.04762,0.25308 0.0483,0.40829 0.260892,0.42213 0.413379,0.34012 0.234472,-0.1261 z m 40.561062,33.83816 c -0.21868,-2.58697 -0.17556,-7.96216 0.0708,-8.82363 0.18153,-0.63482 0.55186,5.5189 0.55186,9.1702 0,2.33352 -0.41564,2.10217 -0.62264,-0.34657 z m 9.58899,-15.01824 c -1.79484,-0.77339 -3.52407,-1.74289 -3.10869,-1.74289 0.085,0 0.91517,0.34218 1.84481,0.7604 0.92963,0.41822 1.98789,0.85076 2.3517,0.96121 0.64114,0.19464 0.64723,0.18486 0.19843,-0.31821 -0.84473,-0.9469 -0.52584,-1.46968 0.44745,-0.73352 0.80295,0.60732 0.94638,0.46447 0.53124,-0.52909 -0.70302,-1.68256 -0.38295,-1.61751 0.54868,0.11151 0.50601,0.93913 0.92003,1.75668 0.92003,1.81679 0,0.0601 -0.29766,0.0524 -0.66146,-0.0172 -0.44355,-0.0848 -0.66146,-0.008 -0.66146,0.23374 0,0.47967 -0.0794,0.46178 -2.41073,-0.54276 z m 5.71802,-1.69534 c -1.69884,-0.72565 -3.36965,-1.66088 -3.22522,-1.80531 0.0733,-0.0733 0.52098,0.0671 0.99476,0.31212 1.2585,0.65079 3.74794,1.47157 3.92532,1.29419 0.0841,-0.0841 -0.0386,-0.25994 -0.27253,-0.39086 -0.92485,-0.51757 -2.30785,-5.21257 -1.65338,-5.61289 0.12708,-0.0777 0.25347,0.27932 0.28086,0.79344 0.0676,1.26935 1.04867,3.69112 1.98443,4.89874 l 0.76883,0.99219 -0.87237,-0.0148 c -0.4798,-0.008 -1.34861,-0.21821 -1.9307,-0.46684 z m -9.12812,-1.6144 c 1.67349,-0.55363 3.37013,-1.13901 3.77031,-1.30083 0.40018,-0.16182 0.72761,-0.23613 0.72761,-0.16514 0,0.20851 -2.82628,1.39807 -4.68754,1.97296 -3.09109,0.95474 -2.93045,0.52522 0.18962,-0.50699 z m -26.314757,-0.58821 c -0.555143,-0.43667 -0.689712,-0.72649 -0.583539,-1.25677 0.340855,-1.70238 0.344175,-1.69199 -0.618372,-1.93624 -1.624403,-0.41221 -2.247795,-1.69604 -1.558324,-3.20926 0.355569,-0.78039 1.287807,-1.24213 2.430669,-1.20392 0.789702,0.0264 0.77073,0.0455 -0.278433,0.28043 -1.253888,0.28076 -2.084195,1.39293 -1.772674,2.37445 0.211614,0.66674 1.626589,1.28554 2.939557,1.28554 h 0.984041 l -0.71096,0.74208 c -0.749627,0.78244 -0.925738,1.84772 -0.393459,2.38 0.453096,0.4531 1.96828,0.39226 2.734517,-0.1098 0.566506,-0.37119 0.65215,-0.37515 0.65215,-0.0301 0,0.47156 -1.527691,1.2512 -2.451701,1.2512 -0.358565,0 -0.976627,-0.2554 -1.373472,-0.56756 z m 31.341837,0.30298 c 0,-0.14552 0.12609,-0.26458 0.2802,-0.26458 0.15411,0 0.20661,0.11906 0.11668,0.26458 -0.0899,0.14552 -0.21603,0.26458 -0.2802,0.26458 -0.0642,0 -0.11668,-0.11906 -0.11668,-0.26458 z m -12.34932,-5.0288 c 1.23085,-1.1651 2.89205,-2.92128 3.69155,-3.9026 l 1.45362,-1.78423 0.29479,-3.05672 c 0.37145,-3.85176 0.37397,-6.95705 0.007,-8.32036 -0.19981,-0.7418 -0.8583,-1.65183 -2.20168,-3.04271 -3.11842,-3.22869 -5.90768,-7.02665 -7.55273,-10.28408 -0.65071,-1.2885 -0.8173,-1.22696 -1.33864,0.4945 -0.19832,0.65484 -0.74413,1.96453 -1.21291,2.91041 -0.46879,0.94589 -1.17101,2.4937 -1.5605,3.43959 -0.38949,0.94588 -0.99496,2.21635 -1.34548,2.82326 -1.01303,1.75402 -1.36945,5.86124 -0.76412,8.80552 0.25576,1.24401 0.58432,2.49997 0.73013,2.79101 0.26297,0.52488 0.26043,0.52501 -0.31307,0.0156 -0.65868,-0.58504 -2.57296,-4.30571 -2.3368,-4.54187 0.0855,-0.0855 0.40153,0.38469 0.70228,1.04487 0.52982,1.16303 1.37189,2.11697 0.98983,1.12133 -0.68525,-1.78571 -0.3452,-8.71709 0.65516,-13.35492 0.56151,-2.60321 1.16699,-4.43069 0.88581,-2.67357 -0.57734,3.60793 -0.94969,6.41277 -0.86283,6.49963 0.095,0.095 1.1709,-2.53677 3.65855,-8.94897 0.99827,-2.57314 1.00011,-2.5851 0.55902,-3.63533 -0.48349,-1.15118 -0.7109,-1.25196 -1.5302,-0.67809 -0.47343,0.3316 -0.54394,0.3316 -0.54394,0 0,-0.20955 0.0496,-0.33138 0.11024,-0.27075 0.26138,0.26137 1.10103,-0.9275 0.96123,-1.36101 -0.0925,-0.28687 -0.0645,-0.35443 0.0721,-0.17396 0.30988,0.40931 1.53876,0.78228 1.29894,0.39424 -0.10572,-0.17105 0.10833,-0.40356 0.51326,-0.55751 0.98413,-0.37417 1.17205,-0.31109 0.39557,0.13279 -0.3638,0.20797 -0.49279,0.38234 -0.28663,0.3875 0.20615,0.005 0.30473,0.0795 0.21906,0.16513 -0.30257,0.30258 4.16863,9.59473 6.07382,12.62274 0.72631,1.15437 5.6622,6.53609 5.99463,6.53609 0.093,0 -0.24816,-0.58075 -0.7581,-1.29056 -1.01401,-1.41143 -4.20034,-7.42758 -4.02613,-7.60179 0.0595,-0.0595 0.63302,0.87094 1.27443,2.06769 0.96745,1.80506 3.69709,6.06239 5.72935,8.93585 l 0.46394,0.65598 -0.79375,-0.54234 c -0.43656,-0.29829 -1.36266,-0.86837 -2.058,-1.26684 l -1.26426,-0.72449 0.16357,2.06606 c 0.10508,1.32724 0.0198,3.01098 -0.23848,4.70846 -0.22113,1.45332 -0.35732,2.68714 -0.30264,2.74182 0.0547,0.0547 0.34352,-0.30096 0.64186,-0.79031 0.29834,-0.48936 0.54288,-0.75394 0.54342,-0.58797 0.002,0.74396 -3.26723,5.1587 -5.11577,6.90737 -1.11484,1.05461 -2.02699,1.97243 -2.02699,2.03959 0,0.28579 2.86009,-1.68234 4.21245,-2.89873 1.16541,-1.04823 1.31395,-1.13064 0.71538,-0.39687 -1.15994,1.42193 -3.04485,2.89665 -4.77628,3.73688 -0.86253,0.41857 -1.67412,0.76103 -1.80352,0.76103 -0.1294,0 0.77179,-0.95327 2.00265,-2.11838 z m -1.75147,-28.11027 c -0.78202,-1.49158 -1.82856,-3.68557 -2.32564,-4.87551 -0.67979,-1.62736 -1.04559,-2.19092 -1.47598,-2.274 -0.44776,-0.0864 -0.55102,-4.7e-4 -0.47481,0.39529 0.21296,1.10582 5.11421,9.4662 5.54953,9.4662 0.0818,0 -0.49107,-1.22039 -1.2731,-2.71198 z m 18.59871,28.54126 c 0,-0.0549 0.20836,-0.2633 0.46302,-0.46302 0.41964,-0.32911 0.429,-0.31975 0.0999,0.0999 -0.34565,0.44073 -0.56292,0.58089 -0.56292,0.36313 z m 2.38125,-2.14504 c 0.80036,-0.85059 1.78145,-1.83414 2.1802,-2.18566 1.00763,-0.8883 3.42482,-4.58422 4.54739,-6.95302 1.05881,-2.23428 1.51465,-4.21911 1.31375,-5.72035 -0.64944,-4.85283 -0.7935,-5.4187 -1.67429,-6.57625 -0.22145,-0.29104 0.0327,-0.12716 0.56487,0.36419 1.31178,1.21122 3.32513,5.01427 2.3285,4.39831 -0.14552,-0.0899 -0.26459,0.0866 -0.26459,0.39242 0,2.41068 -2.00053,8.06029 -3.93653,11.11696 -1.05649,1.66804 -3.26651,4.06599 -5.19159,5.63304 l -1.32292,1.07688 z m -8.99583,0.55754 c 0,-0.0549 0.20835,-0.2633 0.46302,-0.46302 0.41964,-0.32911 0.429,-0.31975 0.0999,0.0999 -0.34564,0.44073 -0.56291,0.58089 -0.56291,0.36313 z m 9.15044,-2.54594 c 0.99305,-1.52797 2.25434,-3.61156 2.80288,-4.63021 1.29604,-2.40679 1.28887,-1.99329 -0.0137,0.7862 -1.14555,2.44454 -2.78069,4.96165 -3.87212,5.96068 -0.46206,0.42294 -0.0716,-0.3403 1.08289,-2.11667 z m -32.365984,-4.91037 c -1.738259,-0.91287 -5.365636,-4.04343 -7.184515,-6.20052 -1.782174,-2.11355 -0.596889,-1.32027 2.255645,1.50965 2.605884,2.58523 5.919404,5.14648 5.919404,4.57552 0,-0.15562 -0.17524,-0.70236 -0.38942,-1.21498 -0.471595,-1.12868 -1.205191,-4.87622 -1.179519,-6.02551 0.01635,-0.73192 0.07641,-0.66069 0.505209,0.59919 0.26766,0.78642 0.43376,1.5677 0.36911,1.73618 -0.160645,0.41862 0.90685,4.91874 1.27083,5.35731 0.52619,0.63402 0.11266,0.54512 -1.566744,-0.33684 z m -22.007324,-1.06481 c 0.0127,-0.30822 0.07539,-0.37091 0.159853,-0.15985 0.07643,0.191 0.06703,0.4192 -0.02089,0.50712 -0.08792,0.0879 -0.150452,-0.0683 -0.138963,-0.34727 z m 64.485888,-3.30134 c 0.0955,-2.71383 0.0381,-3.47574 -0.31264,-4.15405 -0.48418,-0.9363 -0.53876,-1.22024 -0.19355,-1.00689 0.32019,0.19789 -0.1496,-1.82592 -0.64725,-2.78825 -0.21785,-0.42128 -0.3268,-0.76596 -0.24212,-0.76596 0.36985,0 1.23943,2.57281 1.58775,4.69766 0.45612,2.78241 0.46251,4.85487 0.0194,6.28255 -0.28973,0.93348 -0.31469,0.66625 -0.21157,-2.26506 z m -64.959038,0.876 c -0.151333,-0.98227 -0.266883,-3.51235 -0.256776,-5.6224 0.01558,-3.25213 0.03201,-3.4017 0.107884,-0.98199 0.04991,1.59158 0.194419,2.78964 0.326633,2.70792 0.134562,-0.0832 0.178403,0.45602 0.10136,1.24657 -0.07467,0.76622 -0.02475,2.07774 0.110935,2.91448 0.135685,0.83675 0.165344,1.52135 0.06591,1.52135 -0.09943,0 -0.30461,-0.80367 -0.455944,-1.78593 z m 65.539768,1.46987 c 0,-0.0931 0.23809,-0.72467 0.52908,-1.40354 1.07033,-2.49697 1.64721,-5.41535 1.52913,-7.73573 -0.061,-1.19861 -0.0692,-2.13759 -0.0182,-2.08662 0.051,0.051 0.20462,0.78047 0.34144,1.62111 0.31437,1.93157 -0.0875,4.99714 -0.92532,7.0591 -0.56488,1.39018 -1.4561,2.94829 -1.4561,2.54568 z m -60.727424,-1.90479 c -3.035453,-0.95116 -3.760065,-2.9181 -1.651658,-4.48337 1.094941,-0.81289 3.402015,-0.89244 5.2892,-0.1824 2.236827,0.8416 3.101916,2.25271 2.29983,3.75142 -0.633027,1.18282 -3.615065,1.64205 -5.937372,0.91435 z m 3.048252,-2.28559 c 0,-0.85054 -1.803154,-1.24197 -2.266633,-0.49204 -0.263395,0.42618 0.541409,1.00954 1.406737,1.01967 0.691354,0.008 0.859896,-0.0953 0.859896,-0.52763 z m 20.703922,1.60328 c -2.39441,-1.08687 -2.03227,-3.19156 0.79212,-4.60366 2.53436,-1.2671 5.11017,-1.18844 6.73078,0.20556 0.94622,0.8139 0.9877,2.23784 0.0929,3.19028 -1.49272,1.58893 -5.40821,2.2099 -7.61583,1.20782 z m 4.28675,-2.16639 c 0.37065,-0.16888 0.67391,-0.4538 0.67391,-0.63315 0,-0.67953 -1.69987,-0.87811 -2.50117,-0.29218 -0.46371,0.33907 -0.45736,0.37493 0.14059,0.79375 0.74504,0.52184 0.8177,0.52751 1.68667,0.13158 z m 22.65706,1.32685 c 0.44685,-0.75786 1.16366,-2.45821 1.59291,-3.77855 0.42926,-1.32034 0.90022,-2.61382 1.04659,-2.8744 0.14636,-0.26059 0.20061,-0.57978 0.12054,-0.70933 -0.0801,-0.12954 -0.0246,-0.31032 0.12333,-0.40172 0.35096,-0.21691 0.34675,1.6096 -0.009,3.80065 -0.15052,0.92765 -0.2272,1.73312 -0.1704,1.78992 0.27372,0.27372 1.60336,-4.76985 1.71868,-6.51928 0.0721,-1.09441 0.20798,-1.76469 0.30288,-1.49453 0.26622,0.75792 -0.19692,4.35653 -0.79194,6.15346 -0.52598,1.5884 -2.01706,4.24791 -2.25066,4.01431 -0.0655,-0.0655 0.10845,-1.00884 0.38658,-2.09629 0.56809,-2.22123 0.96822,-4.6689 0.72671,-4.44538 -0.0875,0.081 -0.3426,1.03346 -0.56694,2.11667 -0.46947,2.26685 -1.78425,5.14929 -2.53109,5.54898 -0.41818,0.2238 -0.36346,0.0234 0.30159,-1.10451 z m -9.53021,-0.56983 c -0.35907,-1.088 -1.61508,-7.53158 -1.58116,-8.11168 0.0387,-0.66097 0.50766,1.18869 1.3051,5.14698 0.74778,3.71178 0.83627,4.66215 0.27606,2.9647 z m 4.15273,-0.26519 c -0.10746,-0.26217 -0.18037,-3.11967 -0.16203,-6.35 0.0254,-4.47956 0.088,-5.4966 0.26378,-4.28582 0.27252,1.87749 0.1821,11.32838 -0.10175,10.63582 z m 4.71682,-0.46097 c 0.14675,-0.93481 -1.22951,-7.25006 -2.12545,-9.7531 -0.2295,-0.64116 -0.37366,-1.20936 -0.32035,-1.26267 0.17764,-0.17764 1.06223,2.39549 1.78991,5.20655 0.72392,2.79656 1.00719,2.73213 0.48187,-0.1096 -0.15553,-0.84134 -0.22841,-1.58407 -0.16196,-1.65052 0.22693,-0.22694 0.7283,3.36392 0.73663,5.2759 0.005,1.0495 -0.11682,2.20583 -0.26976,2.56963 -0.24857,0.59125 -0.26246,0.56193 -0.13089,-0.27619 z m -54.395217,-1.33335 c 0.0011,-2.22054 4.112375,-12.50838 5.708523,-14.28478 0.300092,-0.33398 0.335036,-0.96116 0.176897,-3.175 l -0.197067,-2.758801 -0.926042,-0.16361 -0.926041,-0.16361 0.846748,-0.0348 c 0.498938,-0.0205 0.957525,-0.22502 1.116434,-0.49785 0.150161,-0.25781 0.273251,-0.31625 0.277731,-0.13185 0.0044,0.18214 0.608406,0.76249 1.34218,1.289651 1.554364,1.1167 1.572369,1.4754 0.02949,0.58743 -0.584967,-0.33666 -1.123157,-0.55253 -1.195976,-0.47971 -0.219174,0.21917 0.613841,6.11075 1.064937,7.53188 1.089373,3.43194 3.663482,8.99928 5.180082,11.20358 0.446983,0.64967 0.674694,1.09592 0.506024,0.99168 -0.581241,-0.35923 -2.490167,-3.40656 -3.547932,-5.66377 -0.583169,-1.24445 -1.496061,-3.56423 -2.028647,-5.15507 l -0.96834,-2.89244 -0.739107,0.96902 c -1.037554,1.3603 -2.527275,4.65961 -4.129635,9.14596 -1.38844,3.8874 -1.590595,4.35548 -1.590256,3.68212 z m 13.518576,-0.72267 c -1.211678,-2.37509 -3.196873,-7.83012 -3.195325,-8.78029 3.56e-4,-0.21828 0.400705,0.73422 0.889665,2.11667 0.48896,1.38245 1.38052,3.63492 1.981244,5.0055 1.10614,2.5237 1.317736,3.60518 0.324416,1.65812 z m 37.197811,-3.35633 c 0.0877,-2.03729 0.23159,-5.54963 0.31984,-7.80521 l 0.16046,-4.10104 0.22336,2.77813 c 0.12285,1.52797 0.22666,2.89718 0.2307,3.04271 0.0214,0.77026 -0.65941,7.57856 -0.85985,8.59895 -0.15404,0.78415 -0.17947,-0.074 -0.0745,-2.51354 z m -61.1156,1.70885 c -0.246892,-0.28835 -0.448894,-0.62621 -0.448894,-0.75079 0,-0.12459 -0.348233,-1.28409 -0.77385,-2.57667 -0.962429,-2.92284 -1.605447,-6.52571 -1.606555,-9.00164 -0.0012,-2.77274 0.628324,-5.640351 2.208322,-10.058711 2.071665,-5.79326 4.251327,-9.87388 5.94167,-11.12361 0.52895,-0.39107 0.823005,-0.88787 0.936199,-1.58171 0.56361,-3.45471 5.973013,-9.75438 10.062032,-11.71802 1.182441,-0.56783 2.595157,-1.11287 3.13937,-1.21119 0.544212,-0.0983 1.37765,-0.52029 1.852083,-0.93772 1.737576,-1.52881 5.328127,-3.08097 9.792815,-4.23336 1.786158,-0.46103 2.686578,-0.53972 4.960418,-0.43354 2.38305,0.11128 3.30929,0.30393 6.51326,1.35464 2.05432,0.6737 4.25698,1.57837 4.89479,2.01038 0.88615,0.60023 1.35108,0.75069 1.9713,0.63795 1.9651,-0.35718 5.6098,0.67143 10.10943,2.85309 2.38945,1.15854 3.61917,1.93724 4.65153,2.94555 1.72127,1.68115 3.61142,4.84821 4.41564,7.39867 0.33117,1.05022 1.00322,2.46605 1.49344,3.14627 1.82077,2.52646 3.80383,7.55093 4.78537,12.12469 1.0404,4.848061 1.19751,6.240391 1.04999,9.305501 -0.12746,2.64861 -0.0737,3.21326 0.46147,4.84971 0.33316,1.01864 0.67925,2.32833 0.7691,2.91041 0.0898,0.58209 -0.35892,-0.49589 -0.99725,-2.3955 -0.63834,-1.89961 -1.40412,-3.93114 -1.70173,-4.51451 -0.36094,-0.70749 -0.46099,-1.18729 -0.30049,-1.44095 0.18696,-0.29547 0.24153,-0.25028 0.24468,0.20257 0.005,0.6731 0.52946,1.93068 0.80565,1.93068 0.26836,0 0.51502,-1.71653 0.51841,-3.60774 0.003,-1.50438 -1.7078,-8.278341 -3.01887,-11.955441 -1.00805,-2.82724 -2.87111,-6.9131 -3.09041,-6.77757 -0.13285,0.0821 -0.3156,-0.0666 -0.4061,-0.3305 -1.42056,-4.14204 -4.53426,-9.3738 -6.5732,-11.04456 -1.38793,-1.13729 -5.59224,-3.28316 -8.064,-4.11584 -0.93083,-0.31358 -2.76834,-0.69026 -4.08335,-0.83708 -1.31502,-0.14681 -2.62747,-0.39352 -2.91656,-0.54824 -0.2891,-0.15472 -2.20703,-0.8476 -4.26208,-1.53973 -6.69191,-2.25382 -9.43838,-2.35422 -14.942938,-0.5463 -1.81901,0.59744 -3.962135,1.44641 -4.7625,1.88661 -0.800365,0.44019 -2.46724,1.28274 -3.704167,1.87232 -1.236927,0.58959 -2.999594,1.43073 -3.917037,1.86921 -2.9729,1.42085 -7.343002,6.55109 -9.348952,10.97512 -0.659548,1.4546 -0.756929,1.98708 -0.756929,4.13889 0,2.81302 0.647418,5.7226 1.852165,8.32387 0.888237,1.91787 0.839142,2.14466 -0.112678,0.5205 -1.46423,-2.49852 -2.387813,-6.61861 -2.11841,-9.45019 0.148008,-1.55565 0.126491,-1.66928 -0.225453,-1.19062 -0.640932,0.8717 -2.39034,4.33914 -3.470713,6.87917 -0.557061,1.30968 -1.661749,3.79013 -2.454864,5.51211 -1.694388,3.678781 -1.925015,5.212601 -1.412659,9.395121 0.310377,2.53371 0.605525,3.27891 0.88106,2.22454 0.07079,-0.2709 0.133736,-0.1462 0.151693,0.30052 0.01688,0.41994 0.397246,2.54378 0.845257,4.71963 0.448011,2.17586 0.769076,4.00159 0.713477,4.05719 -0.0556,0.0556 -0.30309,-0.13483 -0.549982,-0.42318 z m 1.983937,-0.12135 c 0.0054,-0.43656 0.06469,-0.58312 0.131773,-0.32569 0.06708,0.25743 0.06267,0.61462 -0.0098,0.79375 -0.07248,0.17913 -0.127361,-0.0315 -0.121969,-0.46806 z m 17.146338,-0.0278 -1.719792,-0.61494 1.109725,-0.009 c 0.811969,-0.007 1.308912,0.16587 1.852084,0.64373 0.408297,0.3592 0.682827,0.64014 0.610066,0.62431 -0.07276,-0.0158 -0.906198,-0.30551 -1.852083,-0.64373 z m 18.274965,0.26982 c 0.46563,-0.56106 1.0534,-0.84448 2.36024,-1.13811 1.48647,-0.33398 1.06131,0.028 -1.01556,0.86476 -1.17574,0.47368 -1.57897,0.55565 -1.34468,0.27335 z m -36.455542,-2.3587 c 0.002,-0.72761 0.05337,-0.99386 0.114185,-0.59168 0.06082,0.40218 0.05919,0.9975 -0.0036,1.32292 -0.0628,0.32542 -0.112561,-0.004 -0.110574,-0.73124 z m 8.971739,-1.32292 c 0.0054,-0.43656 0.06469,-0.58313 0.131774,-0.32569 0.06708,0.25743 0.06267,0.61461 -0.0098,0.79375 -0.07247,0.17913 -0.127362,-0.0315 -0.12197,-0.46806 z m -8.73125,-0.79375 c 0.0054,-0.43656 0.06469,-0.58313 0.131773,-0.32569 0.06708,0.25743 0.06267,0.61461 -0.0098,0.79375 -0.07247,0.17913 -0.127362,-0.0315 -0.121969,-0.46806 z m 0.264583,-1.5875 c 0.0054,-0.43656 0.06469,-0.58313 0.131774,-0.3257 0.06708,0.25744 0.06267,0.61462 -0.0098,0.79375 -0.07248,0.17914 -0.127362,-0.0315 -0.12197,-0.46805 z m 0.254779,-1.45521 c 0,-0.3638 0.06005,-0.51263 0.133453,-0.33073 0.0734,0.1819 0.0734,0.47956 0,0.66146 -0.0734,0.1819 -0.133453,0.0331 -0.133453,-0.33073 z m 0.243696,-1.21267 c 0.0127,-0.30823 0.07539,-0.37092 0.159852,-0.15986 0.07643,0.191 0.06703,0.4192 -0.02089,0.50712 -0.08792,0.0879 -0.150453,-0.0683 -0.138964,-0.34726 z m -3.174271,-1.1179 c -0.03152,-0.89058 0.461424,-4.133 0.952984,-6.26839 0.411429,-1.787301 1.50155,-4.630211 1.775463,-4.630211 0.07334,0 -0.02826,0.38696 -0.225781,0.8599 -0.526466,1.26055 -1.181816,3.877331 -1.871927,7.474481 -0.335017,1.74625 -0.618849,2.90015 -0.630739,2.56422 z m 3.579319,-0.31526 c 0.09018,-0.50933 0.270995,-1.10464 0.401814,-1.32292 0.281548,-0.46978 0.01103,0.90162 -0.339234,1.71979 -0.15282,0.35697 -0.173185,0.22781 -0.06258,-0.39687 z M 134.29722,102.4 c -0.15031,-1.66742 -0.26195,-2.14331 -0.37242,-1.5875 -0.10563,0.53147 -0.25745,-0.21089 -0.45944,-2.246611 -0.16593,-1.6722 -0.27001,-3.07204 -0.2313,-3.11075 0.17447,-0.17447 1.21313,4.706531 1.21313,5.700871 0,0.61143 0.10534,1.1117 0.2341,1.1117 0.35559,0 0.62172,-2.667431 0.63353,-6.350001 0.008,-2.60152 0.0525,-2.99676 0.20678,-1.85208 0.32266,2.39345 0.27068,4.75838 -0.15852,7.211991 -0.64126,3.66597 -0.81962,3.85379 -1.06586,1.12238 z m 7.34629,1.29558 c -0.0289,-0.59711 -0.11161,-1.84727 -0.18377,-2.77812 -0.11141,-1.437161 -0.0897,-1.560571 0.14359,-0.81815 0.15114,0.48087 0.23384,1.73103 0.18377,2.77813 -0.0501,1.04709 -0.11467,1.41526 -0.14359,0.81814 z m -27.71659,-2.07146 c -0.44485,-0.35075 -1.21876,-0.75541 -1.7198,-0.89925 -0.61233,-0.17578 -0.7375,-0.27844 -0.38181,-0.31312 0.34281,-0.0334 0.15645,-0.17445 -0.52916,-0.40041 -0.58209,-0.191841 -0.82021,-0.352721 -0.52917,-0.357521 1.25301,-0.0206 4.36562,1.663971 4.36562,2.362771 0,0.40121 -0.33905,0.29084 -1.20568,-0.39247 z m -36.576836,-0.55747 c 0.163705,-0.35929 0.356101,-0.5948 0.427548,-0.52336 0.07145,0.0714 0.558121,-0.12732 1.0815,-0.4417 1.180506,-0.709111 1.042608,-0.543511 -0.559839,0.6723 -1.149945,0.87249 -1.223719,0.89524 -0.949209,0.29276 z m 55.645856,-0.188 c -0.0615,-0.1819 -0.31051,-1.036751 -0.55347,-1.899671 -0.5242,-1.86177 -2.1648,-5.86195 -3.45466,-8.42327 -0.50771,-1.00818 -0.81617,-1.76697 -0.68546,-1.68619 0.41509,0.25655 3.6774,7.11014 4.23652,8.90027 0.59504,1.90513 0.90856,3.439591 0.70278,3.439591 -0.0737,0 -0.18426,-0.14883 -0.24571,-0.33073 z m -24.26295,-0.1146 c 0.191,-0.0764 0.4192,-0.067 0.50712,0.0209 0.0879,0.0879 -0.0683,0.15045 -0.34726,0.13896 -0.30823,-0.0127 -0.37092,-0.0754 -0.15986,-0.15985 z M 77.912557,99.970239 c 0.10328,-0.17218 -0.222392,-1.06515 -0.723716,-1.98437 -1.209889,-2.21843 -2.209609,-5.47455 -2.381536,-7.75672 l -0.139525,-1.85209 0.358325,1.98438 c 0.541786,3.00037 2.611782,8.53164 3.375298,9.01919 0.134062,0.0856 0.03666,0.32373 -0.216439,0.52916 -0.253103,0.205441 -0.375686,0.232641 -0.272407,0.0605 z m 29.182943,-0.22632 c -0.25532,-0.66535 -0.18,-0.83703 0.1319,-0.30066 0.15444,0.26558 0.22506,0.5386 0.15693,0.606731 -0.0681,0.0681 -0.19809,-0.0696 -0.28883,-0.306071 z m 2.15012,0.23187 c 0.18191,-0.0734 0.47956,-0.0734 0.66146,0 0.1819,0.0734 0.0331,0.133461 -0.33073,0.133461 -0.3638,0 -0.51263,-0.0601 -0.33073,-0.133461 z m 26.9102,-0.15817 c 0.55541,-2.00666 0.73485,-4.48097 0.60889,-8.39616 -0.1113,-3.45959 -0.0886,-3.95487 0.10934,-2.38294 0.37915,3.01147 0.13669,9.182 -0.40547,10.31875 -0.24291,0.50933 -0.38365,0.716481 -0.31276,0.46035 z m -56.278945,-0.90016 c 0.181901,-0.0734 0.479557,-0.0734 0.661458,0 0.181901,0.0734 0.03307,0.13345 -0.330729,0.13345 -0.363802,0 -0.51263,-0.06 -0.330729,-0.13345 z m 2.926953,-0.006 c 0.190997,-0.0764 0.4192,-0.067 0.507119,0.0209 0.08792,0.0879 -0.06835,0.15045 -0.347266,0.13896 -0.308225,-0.0127 -0.370919,-0.0754 -0.159853,-0.15985 z m 58.299722,-0.34843 c 0,-0.3638 0.0601,-0.51263 0.13345,-0.33073 0.0734,0.1819 0.0734,0.47956 0,0.66146 -0.0734,0.1819 -0.13345,0.0331 -0.13345,-0.33073 z m -59.766431,0.0812 c 0.257431,-0.0671 0.614619,-0.0627 0.79375,0.01 0.179132,0.0725 -0.03149,0.12736 -0.468056,0.12197 -0.436563,-0.005 -0.583125,-0.0647 -0.325694,-0.13178 z m -3.396508,-1.70878 c -0.427377,-1.3413 -0.919094,-9.29848 -0.552908,-8.94741 0.0807,0.0774 0.167137,1.41861 0.192087,2.98054 0.02495,1.56193 0.150165,2.90464 0.278256,2.9838 0.12809,0.0792 0.23525,-0.42864 0.238132,-1.12845 0.01472,-3.57417 1.537119,-9.77454 2.784932,-11.34238 0.253053,-0.31796 0.205838,-0.0956 -0.124049,0.58408 -0.648815,1.33687 -1.522907,4.41677 -1.87589,6.60977 -0.511294,3.17656 -0.795258,7.98785 -0.514958,8.7251 0.147783,0.3887 0.213934,0.76149 0.147002,0.82842 -0.06693,0.0669 -0.324604,-0.51513 -0.572604,-1.29347 z m 52.568849,-1.22522 c -1.3429,-2.75015 -4.31067,-7.38919 -6.1304,-9.58265 -1.52966,-1.84383 -1.55776,-1.90004 -0.39668,-0.79375 1.57699,1.50259 4.97338,6.55431 6.46258,9.61229 0.62575,1.28494 1.09153,2.38244 1.03507,2.4389 -0.0565,0.0565 -0.49321,-0.6972 -0.97057,-1.67479 z m 2.37112,-1.00574 c 0.0127,-0.30822 0.0754,-0.37091 0.15985,-0.15985 0.0764,0.191 0.067,0.4192 -0.0209,0.50712 -0.0879,0.0879 -0.15045,-0.0684 -0.13896,-0.34727 z m -24.30518,-1.04479 c -1.99971,-0.68121 -6.14601,-2.67992 -7.06884,-3.40751 -0.29104,-0.22947 0.60193,0.17058 1.98438,0.889 1.38244,0.71842 3.7637,1.72768 5.29166,2.2428 1.52797,0.51512 2.54,0.93559 2.24896,0.93437 -0.29104,-0.001 -1.39631,-0.29762 -2.45616,-0.65866 z m -5.58587,-1.18478 c -1.60029,-0.88211 -2.52368,-1.57103 -4.261091,-3.17909 l -1.190625,-1.10198 1.409859,1.14968 c 1.662657,1.35583 2.867807,2.17601 4.675557,3.18202 0.7276,0.40491 1.20385,0.7362 1.05833,0.7362 -0.14552,0 -0.90693,-0.35407 -1.69203,-0.78683 z m -3.864216,-1.02011 c -3.4261,-1.6354 -7.7009,-5.51424 -9.515962,-8.63452 l -0.461723,-0.79375 0.623217,0.79361 c 3.000203,3.8205 6.508343,6.85951 9.90077,8.57678 2.004764,1.01484 1.557694,1.0622 -0.546302,0.0579 z m 35.917766,-0.16785 c 0.003,-0.58208 0.0571,-0.78905 0.12041,-0.45994 0.0633,0.32912 0.0609,0.80537 -0.005,1.05834 -0.0662,0.25296 -0.11801,-0.0163 -0.11507,-0.5984 z m -26.89824,-2.08837 c -1.61394,-2.70469 -2.48839,-4.55161 -3.28931,-6.94736 -0.28455,-0.85118 -0.6018,-1.78573 -0.70498,-2.07677 -0.10319,-0.29104 0.45577,0.60193 1.24212,1.98437 1.62394,2.85497 3.50641,5.80611 5.06316,7.9375 0.58458,0.80037 0.80542,1.22929 0.49075,0.95316 -0.61989,-0.54398 -3.21956,-4.27612 -4.40431,-6.32292 -0.40391,-0.6978 -0.78696,-1.21613 -0.85124,-1.15186 -0.12785,0.12785 1.39017,3.17018 3.08904,6.1909 0.59336,1.05502 1.02684,1.91822 0.9633,1.91822 -0.0635,0 -0.78288,-1.11836 -1.59853,-2.48524 z m 1.62013,-0.7559 c -1.41324,-2.13107 -2.71295,-4.61347 -3.63635,-6.94531 -1.05553,-2.6655 -2.11389,-7.26288 -2.07093,-8.99584 0.0278,-1.11938 0.0662,-1.00723 0.24979,0.72894 0.27165,2.56871 0.7925,3.71562 0.63021,1.38773 -0.0795,-1.14067 -0.003,-0.8903 0.27191,0.88951 0.70298,4.5514 1.6538,7.11414 4.60279,12.4058 0.58795,1.05503 1.02507,1.91823 0.97138,1.91823 -0.0537,0 -0.51216,-0.62508 -1.0188,-1.38906 z m -16.791042,0.15345 c -3.726949,-2.20477 -6.64,-6.06088 -7.455962,-9.86972 -0.139441,-0.65089 -0.206486,-1.23049 -0.148989,-1.28799 0.0575,-0.0575 0.180433,0.23693 0.27319,0.65429 0.924557,4.15997 3.696287,7.9389 7.582175,10.33741 1.337252,0.8254 1.738282,1.13704 1.463181,1.13704 -0.03969,0 -0.810809,-0.43696 -1.713595,-0.97103 z m 34.461802,-0.88106 c -0.22575,-0.43656 -0.35093,-0.79375 -0.27817,-0.79375 0.0728,0 0.317,0.35719 0.54275,0.79375 0.22576,0.43657 0.35094,0.79375 0.27818,0.79375 -0.0728,0 -0.317,-0.35718 -0.54276,-0.79375 z m -49.822379,-0.66145 c 0.0054,-0.43657 0.06469,-0.58313 0.131773,-0.3257 0.06708,0.25743 0.06267,0.61462 -0.0098,0.79375 -0.07248,0.17913 -0.127362,-0.0315 -0.12197,-0.46805 z m 18.435506,-0.59532 c -0.329108,-0.41964 -0.319749,-0.429 0.0999,-0.0999 0.440729,0.34564 0.580887,0.56291 0.363126,0.56291 -0.05494,0 -0.263302,-0.20835 -0.463021,-0.46302 z m 40.271303,0.0441 c 0.0127,-0.30822 0.0754,-0.37092 0.15985,-0.15985 0.0764,0.19099 0.067,0.4192 -0.0209,0.50712 -0.0879,0.0879 -0.15046,-0.0683 -0.13897,-0.34727 z m -15.25957,-3.88056 -0.50403,-0.59531 0.59532,0.50403 c 0.55944,0.47366 0.71576,0.6866 0.50402,0.6866 -0.0502,0 -0.31809,-0.26789 -0.59531,-0.59532 z m -32.529489,-1.53895 c -0.09592,-0.1552 -0.117656,-0.33893 -0.0483,-0.40829 0.06935,-0.0694 0.196602,0.0576 0.282773,0.28219 0.178907,0.46622 0.02642,0.54823 -0.234472,0.1261 z m -3.010941,-5.69299 c 0.01269,-0.30822 0.07539,-0.37092 0.159852,-0.15985 0.07643,0.19099 0.06703,0.4192 -0.02089,0.50712 -0.08792,0.0879 -0.150453,-0.0684 -0.138964,-0.34727 z m 0.243695,-0.88838 c 0,-0.13693 0.117698,-0.32171 0.261552,-0.41062 0.149982,-0.0927 0.194339,0.0135 0.103985,0.24897 -0.175893,0.45837 -0.365537,0.54224 -0.365537,0.16165 z"
       id="path1" /><rect
       style="font-variation-settings:'wght' 400;fill:#000000;fill-opacity:1;stroke:#000000;stroke-width:0.40349;stroke-opacity:1"
       id="rect1"
       width="64.203575"
       height="8.3420296"
       x="68.377037"
       y="115.36459" /></g></svg>
