<?xml version="1.0" encoding="UTF-8" standalone="no"?>
<!-- Created with Inkscape (http://www.inkscape.org/) -->

<svg
   width="157.59995mm"
   height="198.69031mm"
   viewBox="0 0 157.59995 198.69031"
   version="1.1"
   id="svg1"
   xmlns="http://www.w3.org/2000/svg"
   xmlns:svg="http://www.w3.org/2000/svg">
  <defs
     id="defs1" />
  <g
     id="layer1"
     transform="translate(-32.488259,-50.626969)">
    <path
       id="rect1"
       style="font-variation-settings:'wght' 400;fill:#546e7a;fill-opacity:1;stroke:#1e293b;stroke-width:1.05833;stroke-dasharray:none"
       d="m 112.06506,51.156136 c 42.91852,0 78.54562,33.738851 77.47026,77.470264 l -1.10409,44.89963 c -0.6182,25.14031 -13.42231,47.08332 -26.32097,55.56562 -16.54582,10.88072 -28.58594,19.69646 -50.0452,19.69646 -21.459264,0 -60.251825,-7.92952 -73.967127,-24.48084 -9.292992,-11.21457 -2.960648,-28.95466 -3.135108,-50.41321 L 34.594795,128.6264 C 34.245875,85.70929 69.146531,51.156136 112.06506,51.156136 Z" />
    <path
       style="font-variation-settings:'wght' 400;fill:none;stroke:#1e293b;stroke-width:1.05833;stroke-dasharray:none"
       d="m 90.35179,228.24462 c 0,0 -4.056071,2.4578 -6.637139,-2.70458 -1.833525,-3.66723 1.553425,-6.42801 1.553425,-6.42801 0,0 -3.109425,2.51037 -6.794845,-3.78629 -1.794826,-3.06654 2.168005,-5.04683 2.168005,-5.04683"
       id="path1" />
    <text
       xml:space="preserve"
       style="font-size:176.339px;font-family:'Noto Sans JP';-inkscape-font-specification:'Noto Sans JP, @wght=400';font-variation-settings:'wght' 400;text-align:start;writing-mode:lr-tb;direction:ltr;text-anchor:start;fill:#ffffff;fill-opacity:1;stroke:none;stroke-width:0.979662;stroke-dasharray:none"
       x="8.7728529"
       y="229.46043"
       id="text2"
       transform="scale(1.1173781,0.89495219)"><tspan
         id="tspan2"
         style="font-style:normal;font-variant:normal;font-weight:normal;font-stretch:normal;font-size:176.339px;font-family:'Yu Mincho';-inkscape-font-specification:'Yu Mincho';fill:#ffffff;fill-opacity:1;stroke:none;stroke-width:0.979662"
         x="8.7728529"
         y="229.46043">？</tspan></text>
  </g>
</svg>
