<?xml version="1.0" encoding="UTF-8" standalone="no"?>
<!-- Created with Inkscape (http://www.inkscape.org/) -->

<svg
   width="75.111221mm"
   height="99.076347mm"
   viewBox="0 0 75.111221 99.076347"
   version="1.1"
   id="svg1"
   xml:space="preserve"
   inkscape:version="1.3.2 (091e20e, 2023-11-25, custom)"
   sodipodi:docname="shooter.svg"
   xmlns:inkscape="http://www.inkscape.org/namespaces/inkscape"
   xmlns:sodipodi="http://sodipodi.sourceforge.net/DTD/sodipodi-0.dtd"
   xmlns="http://www.w3.org/2000/svg"
   xmlns:svg="http://www.w3.org/2000/svg"><sodipodi:namedview
     id="namedview1"
     pagecolor="#ffffff"
     bordercolor="#000000"
     borderopacity="0.25"
     inkscape:showpageshadow="2"
     inkscape:pageopacity="0.0"
     inkscape:pagecheckerboard="0"
     inkscape:deskcolor="#d1d1d1"
     inkscape:document-units="mm"
     inkscape:zoom="0.72426347"
     inkscape:cx="167.06628"
     inkscape:cy="231.26943"
     inkscape:window-width="1920"
     inkscape:window-height="1009"
     inkscape:window-x="-8"
     inkscape:window-y="-8"
     inkscape:window-maximized="1"
     inkscape:current-layer="layer1" /><defs
     id="defs1" /><g
     inkscape:label="Layer 1"
     inkscape:groupmode="layer"
     id="layer1"
     transform="translate(-60.503428,-87.309963)"><rect
       style="font-variation-settings:'wght' 400;fill:none;stroke-width:0.40349"
       id="rect1"
       width="9.8634682"
       height="15.343174"
       x="55.527676"
       y="71.966789" /><path
       style="fill:#000000"
       d="m 76.117298,186.19017 c 0,-0.25812 2.578644,-3.68811 4.646631,-6.18071 1.027679,-1.2387 2.018935,-2.4903 2.202791,-2.78134 l 0.334283,-0.52917 -0.174702,0.52917 c -0.295716,0.89571 -1.142554,5.46393 -1.337639,7.21582 -0.101642,0.91276 -0.304736,1.73369 -0.45132,1.82428 -0.338523,0.20922 -0.05876,-3.15214 0.438593,-5.26979 0.19652,-0.83674 0.283644,-1.51879 0.193607,-1.51567 -0.09004,0.003 -1.288291,1.55094 -2.662788,3.43958 -1.374498,1.88865 -2.65442,3.43391 -2.844271,3.43391 -0.189852,0 -0.345185,-0.0747 -0.345185,-0.16608 z m 6.20047,-0.42924 c 0.06882,-0.32742 0.189816,-1.25015 0.26887,-2.05052 0.164313,-1.66353 1.229254,-6.41252 1.39975,-6.24202 0.06226,0.0623 -0.131751,1.31424 -0.431139,2.78217 -0.299387,1.46793 -0.623563,3.44223 -0.720391,4.38733 -0.09683,0.94509 -0.280941,1.71836 -0.409138,1.71836 -0.128198,0 -0.176776,-0.26789 -0.107952,-0.59532 z m 1.472447,-0.73657 c 0,-2.95614 1.595324,-8.96221 2.62901,-9.89768 0.448917,-0.40627 0.435738,-0.29143 -0.12622,1.09984 -0.560699,1.38815 -1.973623,8.07324 -1.973623,9.33797 0,0.27277 -0.119063,0.56953 -0.264584,0.65946 -0.163311,0.10094 -0.264583,-0.35822 -0.264583,-1.19959 z m 1.891355,0.22987 c 0.13987,-0.62251 0.27755,-1.13524 0.305956,-1.13939 0.307246,-0.0449 7.063107,-5.11007 7.063107,-5.29551 0,-0.0663 -0.625079,-0.41683 -1.389063,-0.77902 -0.763985,-0.36219 -1.937209,-1.00686 -2.607165,-1.43261 -1.059595,-0.67336 -1.241651,-0.92436 -1.399078,-1.92892 -0.151222,-0.96497 -1.182942,-4.63571 -1.392764,-4.9553 -0.03478,-0.053 -0.396923,0.16662 -0.804768,0.48798 l -0.741538,0.5843 -0.20362,-1.80286 c -0.111991,-0.99157 -0.290584,-1.87814 -0.396875,-1.97015 -0.10629,-0.092 -1.38388,-0.4874 -2.839089,-0.87864 -5.144837,-1.38323 -10.889669,-4.82703 -12.164404,-7.2921 -0.672653,-1.30077 -1.461639,-3.8274 -1.461639,-4.68072 0,-0.46759 -0.164796,-1.01496 -0.366214,-1.21638 -0.904816,-0.90482 -1.902323,-3.6672 -1.813999,-5.02348 0.01637,-0.25141 -0.236852,-0.66812 -0.562721,-0.92604 -0.325869,-0.25792 -0.680126,-0.64753 -0.787238,-0.86581 -0.107112,-0.21829 -0.358874,-0.6828 -0.55947,-1.03225 -0.23681,-0.41254 -0.287701,-0.83794 -0.145107,-1.21299 0.133991,-0.35242 0.07695,-1.13625 -0.146316,-2.01046 -0.201259,-0.78807 -0.449331,-2.14722 -0.55127,-3.02035 -0.161488,-1.38316 -0.20954,-1.48533 -0.373326,-0.79375 -0.103389,0.43657 -0.213808,1.27 -0.245373,1.85209 -0.05633,1.03877 -0.06997,1.02166 -0.7382,-0.92605 -1.221245,-3.5596 -1.124162,-13.0979 0.198158,-19.46894 0.960048,-4.62558 3.451176,-11.37713 5.007249,-13.57083 0.270988,-0.38203 0.756652,-1.17085 1.079255,-1.75294 1.467034,-2.64702 3.720023,-4.962667 7.016031,-7.211157 0.873125,-0.59564 1.793996,-1.43467 2.04638,-1.86451 0.836408,-1.42453 3.6158,-3.72961 5.841587,-4.84471 4.568146,-2.2886 8.015386,-2.9652 15.130785,-2.96977 l 5.027079,-0.003 2.77813,0.94939 c 5.99599,2.04904 7.11116,2.50744 9.06982,3.72822 4.25214,2.65025 8.65977,6.93158 11.11207,10.793687 3.93052,6.19014 6.54201,14.49067 7.0652,22.45645 0.16051,2.44387 0.42584,3.99803 1.01634,5.95313 0.43952,1.4552 0.99335,3.41974 1.23074,4.36562 0.23739,0.94589 0.49564,1.93677 0.57389,2.20197 0.13492,0.45731 0.0994,0.46 -0.68923,0.0522 -0.45731,-0.23648 -1.29473,-0.90732 -1.86093,-1.49075 l -1.02944,-1.06077 -0.15817,1.00857 c -0.65128,4.15286 -2.68184,9.34804 -4.83638,12.37382 -0.51346,0.7211 -1.20186,1.91172 -1.52976,2.64584 -1.04391,2.33709 -2.05242,3.45965 -3.94542,4.39157 -1.25876,0.61968 -1.78535,1.03545 -1.90247,1.50207 -0.17239,0.68685 0.0514,5.18211 0.32952,6.61975 0.32571,1.68352 -1.10154,0.79558 -2.23273,-1.38906 l -0.548,-1.05833 -0.0117,2.62069 -0.0117,2.6207 -0.5581,-0.50403 c -0.62935,-0.56838 -2.08774,-3.31791 -2.08774,-3.93607 0,-0.22243 -0.10369,-0.40442 -0.23042,-0.40442 -0.29952,0 -0.64191,3.92623 -0.42923,4.92208 0.09,0.42156 0.21802,1.03436 0.28442,1.36178 0.15064,0.74278 -0.24065,0.758 -1.23757,0.0481 -0.64165,-0.4569 -0.76845,-0.47873 -0.76845,-0.13229 0,0.62041 -0.76026,0.49668 -2.35738,-0.38366 -0.78723,-0.43392 -1.4795,-0.78895 -1.53837,-0.78895 -0.0589,0 -0.0696,1.25043 -0.0239,2.77874 0.0457,1.52831 0.0236,2.80823 -0.0491,2.84427 -0.90291,0.44723 -1.85208,6.32438 -1.85208,11.46785 0,2.03544 -0.0722,2.48831 -0.39688,2.48831 -0.90796,0 -0.0275,-10.33822 1.06733,-12.53295 0.21333,-0.42764 0.38788,-0.85799 0.38788,-0.95634 0,-0.0984 -0.68461,0.14993 -1.52135,0.55174 -1.7016,0.81712 -2.99847,1.23826 -2.57969,0.8377 0.14552,-0.13918 0.94451,-0.52168 1.77554,-0.84999 1.86351,-0.73622 2.11294,-1.02696 2.23196,-2.60154 0.052,-0.68732 0.22539,-2.06111 0.3854,-3.05288 0.16002,-0.99177 0.24262,-1.85155 0.18354,-1.91062 -0.0591,-0.0591 -0.5812,0.12701 -1.16028,0.41352 -0.57909,0.28651 -1.67392,0.66845 -2.43296,0.84875 l -1.38008,0.32783 v 3.35165 3.35164 l -3.582769,3.00189 c -3.80425,3.18745 -6.07478,4.80504 -7.441254,5.30137 -0.799635,0.29044 -0.845789,0.38606 -1.01904,2.11122 l -0.181471,1.80701 h -1.197947 -1.197947 l 0.179605,-1.5875 c 0.09878,-0.87313 0.07739,-1.5875 -0.04755,-1.5875 -0.624934,0 -1.103286,0.7535 -1.175773,1.85208 -0.07409,1.12295 -0.126031,1.19523 -0.913683,1.27169 l -0.835123,0.0811 z m 13.676501,-11.2248 1.630059,-0.70694 v -3.00812 c 0,-1.65447 -0.0372,-3.00813 -0.0826,-3.00813 -0.0454,0 -0.56965,0.23532 -1.164929,0.52293 -1.57652,0.76169 -5.05015,1.6619 -6.3148,1.63652 l -1.093387,-0.022 0.0719,1.90782 0.0719,1.90781 1.543967,0.86735 c 1.82715,1.02643 2.78716,1.00893 5.33788,-0.0973 z m -9.398429,-0.0913 c 0.31289,-0.62721 0.338323,-1.17396 0.132307,-2.84427 -0.395399,-3.20578 -0.473401,-3.37816 -1.570428,-3.47048 l -0.947597,-0.0797 0.484544,1.93183 c 0.2665,1.0625 0.562701,2.67597 0.658225,3.58547 0.19374,1.84464 0.612789,2.14037 1.242949,0.87719 z m 9.705569,-7.56298 c 3.224679,-0.76922 7.799249,-2.30087 9.656079,-3.23302 4.02112,-2.01865 7.20052,-4.91291 8.6502,-7.87442 0.28493,-0.58208 0.45901,-0.78316 0.38685,-0.44683 -0.18175,0.84701 0.33025,0.96785 1.99639,0.47119 1.14575,-0.34155 1.66301,-0.71155 2.81932,-2.01674 1.63432,-1.84474 3.23436,-5.38081 3.42188,-7.56232 0.25535,-2.9706 -1.03342,-5.92343 -2.58529,-5.92343 -1.19579,0 -1.89157,0.36946 -3.2449,1.72305 -1.00794,1.00812 -1.25677,1.43567 -1.25677,2.15938 0,2.50002 -1.59733,7.59066 -2.19443,6.99357 -0.2139,-0.2139 -0.21077,-1.20104 0.0116,-3.6661 0.16738,-1.85536 0.22097,-3.45098 0.11909,-3.54582 -0.10188,-0.0948 -0.81031,-0.10947 -1.5743,-0.0325 -0.98304,0.099 -1.38906,0.25374 -1.38906,0.5293 0,0.83933 -0.85615,2.18914 -1.38852,2.18914 -0.29397,0 -1.44126,0.46154 -2.54954,1.02565 -5.07252,2.58189 -10.09551,3.41966 -15.516359,2.58792 -1.45937,-0.22391 -2.973434,-0.5288 -3.364603,-0.67752 -0.937279,-0.35635 -2.316392,-2.28556 -2.316392,-3.24034 0,-0.75015 -0.0087,-0.75405 -1.686719,-0.75405 -0.927696,0 -2.05879,0.0744 -2.513542,0.16537 -0.78805,0.15761 -0.826823,0.22484 -0.826823,1.43363 0,1.15721 -0.07885,1.317 -0.900605,1.82486 -0.495333,0.30614 -1.953848,0.92436 -3.241146,1.37383 -2.142702,0.74814 -2.53064,0.80362 -4.5895,0.65636 -1.236927,-0.0885 -3.439307,-0.45886 -4.894176,-0.82308 -1.45487,-0.36422 -2.693218,-0.66222 -2.751885,-0.66222 -0.115042,0 0.162291,4.55117 0.330518,5.42396 0.0561,0.29104 0.186099,1.00542 0.288894,1.5875 0.28109,1.5917 1.277376,3.09383 3.12001,4.70413 3.162506,2.76376 8.716561,4.96634 14.489973,5.74633 4.47458,0.60451 10.648526,0.54193 13.493746,-0.13677 z m -13.995246,-2.13653 c -0.66386,-0.84396 -0.69236,-1.24206 -0.148358,-2.07231 0.400341,-0.611 0.386009,-0.63057 -0.719814,-0.98288 -1.891198,-0.60253 -2.351861,-2.36131 -0.958485,-3.65944 0.576968,-0.53752 2.422198,-0.7619 2.690858,-0.3272 0.07114,0.11511 -0.250619,0.16493 -0.715021,0.11071 -1.130973,-0.13203 -2.293513,0.76761 -2.293513,1.77487 0,0.99906 0.800212,1.64521 2.238221,1.80729 0.660749,0.0745 1.201362,0.17946 1.201362,0.23329 0,0.0538 -0.238125,0.33601 -0.529166,0.62705 -0.712236,0.71224 -0.697169,2.00814 0.02786,2.39616 0.505676,0.27063 1.608664,0.19872 2.835201,-0.18486 0.332326,-0.10393 0.302811,-0.0129 -0.117168,0.36119 -0.340989,0.30377 -1.031304,0.52445 -1.758271,0.56208 -1.021296,0.0529 -1.278557,-0.0419 -1.753705,-0.64595 z m 33.689605,-12.46133 c 0.0822,-0.21412 0.1494,-0.48038 0.1494,-0.59167 0,-0.1113 0.41621,-0.63092 0.92491,-1.15472 0.8301,-0.85472 0.89634,-1.02753 0.64616,-1.68556 -0.15332,-0.40326 -0.37932,-0.85617 -0.50223,-1.00646 -0.75658,-0.92516 0.0635,-3.37233 1.59321,-4.75435 1.57097,-1.41928 2.47653,-1.19996 2.76586,0.66986 0.13841,0.89449 0.13571,0.89292 -0.38445,-0.22366 -0.58552,-1.25686 -0.95644,-1.3695 -1.94618,-0.59097 -1.651,1.29868 -2.36208,3.60242 -1.50951,4.89045 0.67992,1.02718 0.66426,1.38638 -0.12512,2.87101 l -0.65402,1.23003 h 0.63238 c 0.3478,0 0.79094,0.0587 0.98474,0.13034 0.21846,0.0808 0.63487,-0.38244 1.09572,-1.21897 0.82199,-1.49204 1.1005,-1.58939 0.71649,-0.25044 -0.53382,1.86131 -0.89131,2.12912 -2.80386,2.10043 -1.4101,-0.0212 -1.70507,-0.0985 -1.5835,-0.41532 z m -52.235104,-3.38555 -0.567931,-0.60453 1.274652,0.59622 c 1.894355,0.88609 6.031741,1.78923 8.286111,1.80875 1.539839,0.0133 2.427928,-0.14603 3.964363,-0.71138 3.43545,-1.26412 3.896236,-1.69869 3.741425,-3.52858 -0.0792,-0.93611 1.160245,-1.40013 3.739879,-1.40013 1.436834,0 2.382307,0.12487 2.699054,0.35648 0.337807,0.24701 0.393964,0.41432 0.182862,0.54479 -0.167566,0.10356 -0.304665,0.58987 -0.304665,1.0807 0,1.54585 1.723702,2.32827 5.953125,2.70226 4.702309,0.4158 6.885409,0.25997 9.789579,-0.69876 2.85187,-0.94146 4.87626,-1.87033 5.36827,-2.46316 0.66168,-0.79728 0.72356,-6.82987 0.0659,-6.42341 -0.12124,0.0749 -0.59945,0.0604 -1.0627,-0.0322 -0.97962,-0.19592 -0.5893,-0.61229 0.58017,-0.61888 0.96505,-0.005 1.2362,0.58425 1.59001,3.45784 0.2345,1.90458 0.37465,2.36511 0.70061,2.30234 0.22411,-0.0432 0.47222,-0.31597 0.55136,-0.60625 0.0791,-0.29028 0.36675,-0.85643 0.63913,-1.25811 0.49383,-0.72825 0.49331,-0.73184 -0.18073,-1.26204 -0.37178,-0.29244 -0.7137,-0.79425 -0.75982,-1.11513 -0.0461,-0.32088 -0.38151,-0.73347 -0.74531,-0.91687 l -0.66146,-0.33345 0.74889,-0.004 c 0.62672,-0.003 0.81525,0.16505 1.1557,1.03174 0.41702,1.06164 0.8819,1.33522 2.28043,1.342 0.65143,0.003 0.72236,-0.0715 0.56244,-0.5917 -0.253,-0.82307 -0.37202,-0.90559 -0.65675,-0.45536 -0.16386,0.2591 -0.2475,0.27959 -0.2502,0.0613 -0.002,-0.18036 -0.58403,-0.96836 -1.2929,-1.75112 -1.82047,-2.01022 -3.23067,-3.97267 -5.10806,-7.10845 -1.89651,-3.16771 -1.76498,-2.97943 -1.95131,-2.79311 -0.0804,0.0804 0.15776,1.8516 0.52917,3.93606 0.37141,2.08445 0.6753,3.96033 0.6753,4.1686 0,0.43309 -3.01406,-3.57031 -4.40243,-5.84749 -0.51016,-0.83674 -1.07976,-1.52135 -1.26579,-1.52135 -0.29514,0 -2.0144,0.51497 -2.20779,0.6613 -0.0389,0.0295 0.0996,0.87499 0.30779,1.87895 0.20823,1.00395 0.45616,2.65881 0.55095,3.67746 l 0.17235,1.85208 -0.53771,-0.66146 c -0.29573,-0.3638 -0.89558,-1.3163 -1.332989,-2.11667 -0.7933,-1.45159 -1.06275,-1.4946 -0.52645,-0.084 0.15561,0.40929 0.44594,1.44294 0.645179,2.29701 l 0.36226,1.55286 -0.668049,-0.62615 c -0.36743,-0.34438 -1.28284,-1.45535 -2.03425,-2.46882 -2.20897,-2.97938 -2.44659,-3.18728 -3.23323,-2.82886 -0.97782,0.44552 -1.13051,0.36089 -0.41872,-0.23209 l 0.62466,-0.52039 -1.5507,-2.0708 c -0.85289,-1.13894 -2.086488,-2.98099 -2.741332,-4.09345 -0.654844,-1.11245 -1.286949,-2.02605 -1.404678,-2.03021 -0.117728,-0.004 -0.154309,0.0891 -0.08129,0.20725 0.138669,0.22437 0.80089,4.25043 1.074417,6.53206 0.20218,1.68648 0.671623,5.36905 0.78674,6.17162 0.04855,0.33846 -0.0011,0.51705 -0.110234,0.39688 -0.36649,-0.40341 -3.866986,-5.76108 -4.598508,-7.03822 -1.115158,-1.94693 -4.133477,-8.13983 -5.862638,-12.0288 -0.856573,-1.92647 -1.645542,-3.41454 -1.753265,-3.30682 -0.393405,0.39341 -2.962174,6.9202 -4.34616,11.04284 -1.415713,4.21715 -1.418891,4.23398 -0.830995,4.40168 2.696538,0.76924 5.242353,1.65769 6.01411,2.09884 l 0.926042,0.52934 -0.926042,-0.11441 c -0.987428,-0.12198 -3.299706,-0.70028 -5.355629,-1.33942 -1.150156,-0.35757 -1.273771,-0.3526 -1.485055,0.0597 -0.432996,0.84489 -1.070834,4.15103 -1.235272,6.40283 -0.09033,1.23693 -0.251071,2.66568 -0.35721,3.175 -0.192141,0.92202 -0.194341,0.91932 -0.506323,-0.62056 -0.17234,-0.85063 -0.455167,-3.44314 -0.628507,-5.76114 -0.203618,-2.7229 -0.414346,-4.18148 -0.595402,-4.12113 -0.154132,0.0514 -0.610726,1.81046 -1.014653,3.90906 -0.750322,3.89831 -0.803312,5.7131 -0.306659,10.50254 0.210025,2.02536 0.655162,2.45357 3.213932,3.09171 3.532642,0.88103 3.52869,0.87941 2.226082,0.91001 -1.44394,0.0339 -3.760421,-0.62697 -4.649846,-1.32659 -0.774853,-0.6095 -1.391409,-2.4757 -1.601898,-4.84864 -0.135614,-1.52884 -0.549447,-2.22437 -1.034739,-1.73908 -0.141911,0.14191 -0.04573,1.43831 0.237178,3.19669 0.44708,2.77882 0.448684,2.9732 0.02648,3.20948 -0.497045,0.27816 -0.445926,0.57244 0.443123,2.55096 l 0.554113,1.23315 0.235192,-1.15134 c 0.204746,-1.0023 0.161671,-1.22961 -0.332738,-1.75588 z m 9.109804,0.68305 c 0.08151,-0.13189 0.734099,-0.32038 1.450196,-0.41887 0.716096,-0.0985 2.038909,-0.52757 2.939584,-0.95352 l 1.637591,-0.77446 -0.135928,-2.91223 c -0.126041,-2.70044 -0.09809,-2.93248 0.384325,-3.19067 0.798232,-0.4272 1.798,0.44631 1.805292,1.57731 0.0036,0.55517 0.09562,0.61007 0.790073,0.47118 0.432311,-0.0865 1.563405,-0.23685 2.513541,-0.3342 l 1.727522,-0.17699 v -0.86119 c 0,-0.90178 0.365578,-1.20201 1.410702,-1.15854 0.418165,0.0174 0.340578,0.0912 -0.286223,0.27215 -0.750551,0.21672 -0.859896,0.36148 -0.859896,1.13846 0,0.54718 0.152916,0.94885 0.396875,1.04246 0.218281,0.0838 0.396875,0.33882 0.396875,0.56679 0,0.33984 -0.100644,0.36062 -0.558889,0.11537 -0.337077,-0.18039 -1.483845,-0.26284 -2.889449,-0.20774 -2.032523,0.0797 -2.417829,0.17339 -3.012986,0.73279 -0.639376,0.60097 -1.012586,0.45602 -0.400874,-0.15569 0.154854,-0.15486 0.244151,-0.80375 0.198438,-1.44198 -0.07443,-1.03924 -0.152196,-1.16043 -0.744574,-1.16043 -0.503974,0 -0.647956,0.12599 -0.604746,0.52917 0.403211,3.76226 0.399579,4.63241 -0.02202,5.27586 -0.585901,0.89419 -1.626223,1.39566 -3.878158,1.86937 -2.190797,0.46084 -2.457272,0.47921 -2.257268,0.1556 z m 18.492071,-0.7079 c -1.59708,-0.32594 -2.734042,-0.7727 -2.734042,-1.0743 0,-0.0832 0.20836,-0.0678 0.463021,0.0343 0.254661,0.10205 1.891771,0.46471 3.638021,0.8059 2.64986,0.51774 2.93431,0.61595 1.71979,0.59373 -0.80036,-0.0146 -2.18942,-0.17645 -3.08679,-0.3596 z m 6.658669,0.13298 c 0.58208,-0.14205 1.88114,-0.44125 2.88679,-0.66491 1.83184,-0.40739 4.1164,-1.39895 4.98456,-2.16342 0.37835,-0.33316 0.46949,-0.89616 0.49837,-3.07869 0.0309,-2.33171 0.0622,-2.50294 0.2466,-1.34806 0.28013,1.75423 0.0245,4.11349 -0.51201,4.72529 -1.0921,1.24539 -4.3384,2.38309 -7.57515,2.65479 -1.43559,0.12051 -1.48623,0.10854 -0.52916,-0.125 z m -27.079195,-1.83514 c -1.854609,-0.38977 -2.805084,-1.07202 -2.903481,-2.08412 -0.212465,-2.18537 2.72368,-2.95176 6.59519,-1.72146 2.280333,0.72465 2.981764,2.26454 1.525016,3.34795 -0.813717,0.60518 -3.424793,0.83423 -5.216725,0.45763 z m 3.026915,-1.8882 c 0.274806,-0.44465 -0.653096,-1.01819 -1.647262,-1.01819 -1.042642,0 -1.414198,0.47951 -0.748648,0.96618 0.596547,0.4362 2.137787,0.46966 2.39591,0.052 z m 14.030554,0.79966 c -0.409181,-3.33585 -0.449077,-4.05321 -0.211462,-3.80223 0.340311,0.35946 0.826759,4.44013 0.563648,4.72827 -0.115688,0.1267 -0.274171,-0.29002 -0.352186,-0.92604 z m 6.970667,0.31441 c -1.3493,-0.40995 -1.84374,-0.89578 -1.84374,-1.81167 0,-1.0427 0.89812,-1.99034 2.34072,-2.46979 0.53162,-0.17668 2.173889,-0.33094 3.649509,-0.34279 2.28562,-0.0184 2.76559,0.0531 3.24114,0.48247 2.38719,2.15545 -3.34603,5.36971 -7.387629,4.14178 z m 4.588119,-2.10829 c 0.13914,-0.13914 0.18743,-0.42384 0.1073,-0.63265 -0.32954,-0.85877 -3.215599,-0.5861 -3.047289,0.2879 0.137689,0.71493 2.314539,0.9702 2.939989,0.34475 z m -37.27184,2.42342 c -0.113125,-0.40018 -0.23804,-1.62057 -0.27759,-2.71198 -0.03955,-1.0914 -0.08079,-2.0439 -0.09164,-2.11667 -0.05872,-0.39375 -0.533313,0.76093 -0.536739,1.30587 -0.0022,0.35442 -0.244761,0.90063 -0.538961,1.21379 l -0.534908,0.56938 0.534908,0.68003 c 0.2942,0.37401 0.534909,0.78626 0.534909,0.91611 0,0.30705 0.566786,0.87108 0.87535,0.87108 0.135673,0 0.150771,-0.31689 0.03467,-0.72761 z m 52.65606,-3.76686 c 1.01109,-0.28915 2.02274,-0.72052 2.24811,-0.95859 0.37687,-0.39811 0.32478,-0.41824 -0.64856,-0.25059 -4.47121,0.77009 -4.76269,0.84745 -4.84723,1.28647 -0.11827,0.61409 0.91612,0.58947 3.24768,-0.0773 z m -48.59142,-14.31932 -0.0827,-1.42684 -0.282005,1.45521 c -0.294012,1.51716 -0.227367,2.07325 0.19755,1.64833 0.137421,-0.13742 0.212642,-0.89194 0.167156,-1.6767 z m 32.76688,0.8579 c 0.19976,-0.11081 -0.22337,-1.06956 -1.24188,-2.81391 -1.571949,-2.6922 -2.496749,-4.037 -2.274379,-3.30729 0.0665,0.21828 0.45518,1.79974 0.86369,3.51435 l 0.742749,3.11747 0.80341,-0.17128 c 0.44188,-0.0942 0.93976,-0.2469 1.10641,-0.33934 z m -40.168123,-1.88933 c -0.02223,-0.56739 0.08324,-1.18612 0.234393,-1.37497 0.151148,-0.18885 0.354014,-0.99923 0.450813,-1.80085 0.199106,-1.64885 0.659942,-2.69698 0.696979,-1.58522 0.01212,0.36381 0.299279,-0.2688 0.638133,-1.40578 0.338853,-1.13698 0.702739,-2.14901 0.808634,-2.24896 0.105896,-0.0999 0.110193,0.0862 0.0095,0.4136 -0.274815,0.89404 0.102483,0.71664 0.421373,-0.19813 0.152127,-0.43639 0.371582,-0.73473 0.487679,-0.66297 0.116097,0.0718 0.282252,-0.055 0.369233,-0.28167 0.08698,-0.22667 0.269168,-0.34351 0.40486,-0.25965 0.135692,0.0839 0.399677,-0.53104 0.586633,-1.36645 0.281141,-1.25627 0.368931,-1.40555 0.507689,-0.86331 0.151095,0.59045 0.200338,0.53954 0.49545,-0.51225 0.284371,-1.01351 0.272334,-1.19883 -0.09108,-1.40221 -0.230316,-0.12889 -0.422542,-0.49632 -0.42717,-0.81651 -0.0082,-0.56884 -0.01731,-0.57041 -0.396875,-0.0686 -0.504575,0.66711 -0.490734,0.45045 0.05187,-0.812 0.242183,-0.56348 0.464946,-1.2031 0.495028,-1.42138 0.03008,-0.21828 0.14982,-0.62476 0.266087,-0.9033 0.146417,-0.35076 0.119139,-0.44941 -0.08875,-0.32092 -0.182776,0.11296 -0.142567,-0.19163 0.102828,-0.77895 0.812998,-1.94578 0.134843,-1.12737 -1.046219,1.26259 -0.66872,1.35321 -1.218507,2.37124 -1.221749,2.2623 -0.01021,-0.34299 2.151149,-5.00649 2.941784,-6.34741 1.04027,-1.76431 0.94842,-1.92187 -0.194023,-0.33284 -1.437197,1.99901 -4.180484,7.83789 -5.220595,11.11166 -0.50857,1.60073 -1.096368,4.00879 -1.306219,5.35125 -0.482074,3.08392 -0.604295,6.80759 -0.215559,6.56734 0.1538,-0.095 0.261446,-0.63705 0.239214,-1.20443 z m 69.030713,-2.71052 c -0.23296,-6.13269 -1.72975,-11.92361 -4.19609,-16.23422 -1.16254,-2.03186 -3.49576,-4.8663 -4.00578,-4.8663 -0.16111,0 0.0127,0.32742 0.38612,0.72761 0.37347,0.40018 1.00873,1.25924 1.41168,1.90901 0.81231,1.3099 2.34204,5.28865 2.11907,5.51161 -0.0781,0.0781 -0.14204,0.0259 -0.14204,-0.11606 0,-0.14196 -0.18742,-0.48923 -0.4165,-0.7717 -0.22907,-0.28248 -0.36067,-0.39453 -0.29243,-0.24901 0.50851,1.08454 0.90815,3.05188 0.65208,3.21013 -0.17366,0.10734 -0.21396,0.0567 -0.10071,-0.12654 0.10384,-0.16801 0.0627,-0.30546 -0.0914,-0.30546 -0.3382,0 -0.3433,0.33492 -0.0259,1.70358 0.13292,0.57316 0.17143,1.39332 0.0856,1.82258 l -0.15609,0.78046 -0.49785,-0.89654 c -0.29808,-0.53678 -0.43397,-0.65765 -0.33865,-0.30123 0.0876,0.32742 0.0404,0.59531 -0.10473,0.59531 -0.55782,0 1.01725,3.76751 1.90809,4.56407 0.76776,0.6865 0.945,0.57236 0.8217,-0.52917 -0.10293,-0.91957 -0.0945,-0.93409 0.11475,-0.19844 0.12419,0.43656 0.41905,1.15094 0.65523,1.5875 l 0.42942,0.79375 0.0283,-0.79375 c 0.0156,-0.43656 0.21888,0.15875 0.45182,1.32292 0.38999,1.94909 0.43749,2.04335 0.59996,1.19062 0.12579,-0.66021 0.18644,-0.29944 0.21127,1.25677 0.0229,1.43342 0.13808,2.18282 0.33559,2.18282 0.21725,0 0.26099,-1.04685 0.15753,-3.77032 z m -0.96657,-1.67569 c 0.0127,-0.30823 0.0754,-0.37092 0.15985,-0.15985 0.0764,0.19099 0.067,0.4192 -0.0209,0.50712 -0.0879,0.0879 -0.15046,-0.0684 -0.13897,-0.34727 z m -21.63054,60.67778 c 0.18911,-3.36803 0.84766,-7.73024 1.26363,-8.37022 0.24082,-0.37051 0.25732,-0.36256 0.12442,0.06 -0.25905,0.8236 -0.67583,6.25563 -0.67822,8.83942 -0.002,2.09882 -0.0645,2.4474 -0.43961,2.4474 -0.39073,0 -0.41954,-0.31729 -0.27022,-2.97657 z m 5.94607,2.51925 c -0.88416,-0.5484 -1.79326,-2.2111 -2.69586,-4.9306 -0.82886,-2.49732 -0.83144,-2.55911 -0.16139,-3.8725 0.29104,-0.57049 0.52916,-1.1575 0.52916,-1.30448 0,-0.14697 -0.47533,-0.53867 -1.05629,-0.87043 -0.60587,-0.346 -1.05717,-0.80345 -1.05833,-1.07279 -0.001,-0.25826 -0.28346,-0.57656 -0.62742,-0.70733 -0.34395,-0.13077 -0.70626,-0.44857 -0.80513,-0.70622 -0.16938,-0.44141 -0.15116,-0.44258 0.31548,-0.0203 0.27238,0.2465 0.62667,0.44818 0.7873,0.44818 0.16064,0 0.35949,0.20836 0.4419,0.46303 0.0824,0.25466 0.60924,0.72469 1.17072,1.04451 l 1.02088,0.58149 0.28122,-0.97837 c 0.15468,-0.5381 0.42312,-1.69274 0.59653,-2.56586 0.17342,-0.87313 0.42244,-1.79065 0.55338,-2.03895 0.44796,-0.84943 3.86041,-1.37354 4.38212,-0.67303 0.4589,0.61617 2.68303,5.61262 3.24178,7.28258 0.30551,0.9131 0.72797,2.4802 0.9388,3.48246 0.21083,1.00225 0.86342,2.86143 1.4502,4.1315 0.58678,1.27008 1.06687,2.41164 1.06687,2.53681 0,0.12517 -1.17161,0.22759 -2.60358,0.22759 h -2.60358 l -0.6479,-0.9106 c -0.35634,-0.50083 -1.08615,-1.25888 -1.6218,-1.68456 -0.97063,-0.77136 -4.06357,-2.0922 -4.31363,-1.84213 -0.0724,0.0724 0.078,0.81234 0.33423,1.64438 0.39063,1.26856 0.63753,1.61573 1.52927,2.15035 0.5849,0.35065 0.88485,0.63551 0.66657,0.63301 -0.21828,-0.002 -0.71846,-0.20399 -1.1115,-0.44777 z m 6.93539,-7.81091 c -0.13759,-0.32743 -0.77597,-2.02407 -1.4186,-3.77032 -0.64264,-1.74625 -1.43249,-3.68101 -1.75524,-4.29948 -0.57628,-1.10429 -1.32713,-1.51329 -1.32713,-0.7229 0,0.55723 4.26384,9.38801 4.53289,9.38801 0.12004,0 0.10568,-0.26789 -0.0319,-0.59531 z m -14.24124,3.70434 c 0.0999,-1.92825 0.30755,-4.22028 0.46148,-5.09341 0.15394,-0.87312 0.28058,-1.69664 0.28142,-1.83003 8.4e-4,-0.1334 0.0582,-0.18591 0.12737,-0.1167 0.0692,0.0692 -0.0488,1.6071 -0.26229,3.41753 -0.21346,1.81044 -0.38915,4.15491 -0.39042,5.20993 -10e-4,1.05503 -0.0916,1.91831 -0.20073,1.91841 -0.10914,1e-4 -0.11672,-1.57748 -0.0168,-3.50573 z M 83.2651,176.39755 c 0.0085,-0.47577 0.443288,-0.88202 1.3492,-1.26054 0.515807,-0.21552 1.09176,-0.57732 1.279895,-0.80401 0.387973,-0.46748 0.961192,-0.53934 1.201439,-0.15061 0.09087,0.14703 -0.0092,0.196 -0.228511,0.11184 -0.214588,-0.0823 -0.645958,0.10607 -0.958599,0.41872 -0.312642,0.31264 -0.827863,0.61697 -1.144937,0.67629 -0.317073,0.0593 -0.784856,0.3617 -1.039518,0.67196 -0.254661,0.31025 -0.461198,0.46161 -0.458969,0.33635 z m 1.054282,-0.0798 c 0,-0.13693 0.117698,-0.32171 0.261552,-0.41061 0.149982,-0.0927 0.194339,0.0135 0.103985,0.24896 -0.175893,0.45837 -0.365537,0.54224 -0.365537,0.16165 z"
       id="path2" /><rect
       style="font-variation-settings:'wght' 400;fill:#000000;fill-opacity:1;stroke:#000000;stroke-width:0.403221;stroke-opacity:1"
       id="rect2"
       width="53.984619"
       height="5.1156011"
       x="63.341522"
       y="141.88388" /></g></svg>
