<?xml version="1.0" encoding="UTF-8" standalone="no"?>
<!-- Created with Inkscape (http://www.inkscape.org/) -->

<svg
   width="70.31768mm"
   height="99.084442mm"
   viewBox="0 0 70.31768 99.084442"
   version="1.1"
   id="svg1"
   xml:space="preserve"
   xmlns="http://www.w3.org/2000/svg"
   xmlns:svg="http://www.w3.org/2000/svg"><defs
     id="defs1" /><g
     id="layer1"
     transform="translate(-65.503733,-66.531938)"><path
       style="fill:#000000"
       d="m 87.011695,165.15291 c 0.138697,-0.25466 0.671917,-0.86679 1.184935,-1.36028 0.775686,-0.74617 0.907942,-0.80236 0.785386,-0.33371 -0.08105,0.30996 -0.253123,0.4982 -0.382372,0.41832 -0.129249,-0.0799 -0.353838,0.16734 -0.499086,0.54937 -0.378146,0.9946 -0.310044,1.16251 0.160438,0.39557 0.223175,-0.3638 0.338019,-0.44336 0.255207,-0.1768 -0.08281,0.26657 -0.150566,0.59399 -0.150566,0.72761 0,0.13362 -0.361377,0.24294 -0.803059,0.24294 -0.684497,0 -0.765828,-0.0684 -0.550883,-0.46302 z m 2.412275,0.23075 c 0,-0.28516 0.710348,-2.10932 1.071,-2.7503 0.385658,-0.68542 -0.49794,-0.97225 -0.976969,-0.31714 -0.197238,0.26974 -0.358614,0.36319 -0.358614,0.20768 0,-0.45278 0.726438,-0.92956 1.244061,-0.81652 0.261652,0.0571 0.960865,-0.22203 1.553807,-0.62039 0.923339,-0.62034 1.124296,-0.93083 1.400098,-2.16324 0.177112,-0.79142 0.48948,-1.66327 0.69415,-1.93745 0.304428,-0.4078 0.300132,-0.28659 -0.02361,0.66628 -0.217658,0.64062 -0.419848,1.59312 -0.449309,2.11666 -0.04741,0.8424 0.02477,0.96101 0.627426,1.03112 0.626613,0.0729 0.703822,-0.0327 0.966855,-1.32291 0.157224,-0.77118 0.370679,-1.67003 0.474344,-1.99746 0.139082,-0.43928 0.08287,-0.59531 -0.21448,-0.59531 -0.282442,0 -0.35834,-0.17064 -0.253764,-0.57054 0.102634,-0.39247 0.0531,-0.51114 -0.158727,-0.38023 -0.184458,0.114 -0.845718,-0.37334 -1.649155,-1.2154 -1.06113,-1.11214 -1.313051,-1.27545 -1.206304,-0.782 0.07421,0.34304 0.01477,0.93836 -0.132084,1.32292 l -0.267008,0.69921 -1.030669,-1.19063 c -0.566868,-0.65484 -1.049105,-1.10132 -1.071638,-0.99218 -0.02253,0.10914 -0.07073,0.3175 -0.107114,0.46302 -0.03638,0.14552 -0.08103,0.3748 -0.09922,0.50952 -0.01819,0.13472 -0.70688,-0.46147 -1.530422,-1.32487 -1.496436,-1.56886 -2.122371,-1.88717 -1.328519,-0.67559 l 0.420811,0.64224 -0.847992,-0.27034 c -0.466396,-0.14869 -1.383774,-0.51393 -2.038618,-0.81164 -0.654844,-0.29771 -1.455995,-0.51269 -1.780336,-0.47773 -0.405361,0.0437 -1.008958,-0.35569 -1.930828,-1.27756 -0.737615,-0.73761 -1.397399,-1.34112 -1.466188,-1.34112 -0.06879,0 0.117895,0.47625 0.414852,1.05834 0.604078,1.18409 0.611899,1.17756 -0.895345,0.74787 -2.417636,-0.68923 -5.674582,-3.58691 -7.335575,-6.52641 -0.4654,-0.82363 -1.050191,-1.85989 -1.299535,-2.30282 -1.017338,-1.80713 -2.367714,-5.68841 -2.757597,-7.92594 -0.22821,-1.30968 -0.596729,-3.03609 -0.818933,-3.83645 -0.826851,-2.97828 -0.944738,-5.8488 -0.515621,-12.55527 0.546162,-8.53572 1.463516,-12.32376 4.424151,-18.268698 3.103247,-6.2313 5.764998,-9.27798 12.196457,-13.96025 1.900192,-1.38338 5.557994,-3.22704 7.45304,-3.75659 0.873125,-0.24398 2.54709,-0.73305 3.719922,-1.08682 1.172832,-0.35377 2.512286,-0.64321 2.976563,-0.64321 0.464278,0 0.844141,-0.0665 0.844141,-0.14781 0,-0.0813 -0.359053,-0.5946 -0.797896,-1.14068 -2.021285,-2.51522 -1.723169,-5.91533 0.727215,-8.29411 2.560808,-2.48598 6.261427,-3.78098 11.513907,-4.02918 1.50945,-0.0713 1.62312,0.1871 0.26459,0.60151 -1.37357,0.41899 -4.69212,3.04802 -6.18229,4.89775 -1.36317,1.69207 -1.83589,3.07551 -1.79499,5.25312 0.0503,2.67603 0.0773,2.7054 2.65753,2.88298 1.55989,0.10735 2.65066,0.34264 3.50437,0.75592 0.68174,0.33002 1.46028,0.54231 1.7301,0.47175 1.97053,-0.5153 7.62393,1.11717 11.36037,3.2804 2.8148,1.62965 8.4763,7.39142 10.366,10.5496 0.4789,0.80036 1.0309,1.6448 1.22667,1.87652 0.46271,0.54767 1.77818,4.162648 2.46729,6.780218 0.79232,3.00956 1.32641,6.90547 1.28858,9.39933 l -0.0332,2.18456 -0.33375,-3.05494 c -0.44563,-4.07906 -1.33599,-8.63981 -2.09476,-10.73021 -0.34027,-0.93742 -1.27322,-2.743628 -2.07324,-4.013788 -0.80001,-1.27017 -1.5368,-2.57902 -1.63731,-2.90855 -0.10051,-0.32954 -0.27232,-0.5438 -0.38179,-0.47614 -0.10947,0.0676 -1.08019,-0.76406 -2.15714,-1.84825 -1.07696,-1.08419 -2.07517,-1.97125 -2.21825,-1.97125 -0.14308,0 0.22924,0.50601 0.82737,1.12448 0.59814,0.61846 1.57246,1.82459 2.16516,2.68028 1.09477,1.58053 3.02464,6.150528 3.30945,7.836908 0.10249,0.60679 -0.0401,0.37876 -0.41374,-0.66146 -0.7359,-2.048998 -0.95467,-1.44329 -0.26254,0.72689 0.70311,2.20462 0.89153,3.11069 0.64552,3.10419 -0.23515,-0.006 -1.27567,-2.20872 -1.53885,-3.25732 -0.0982,-0.39108 -0.2751,-0.77078 -0.39322,-0.84378 -0.11811,-0.073 -0.0975,0.29191 0.0458,0.8109 0.1433,0.519 0.21688,1.20493 0.16352,1.52429 -0.0858,0.51375 -0.14874,0.47396 -0.54584,-0.34538 l -0.44881,-0.92604 0.15307,1.05833 c 0.20275,1.40181 -0.21667,0.94689 -0.80859,-0.87704 -0.58167,-1.79235 -0.80642,-1.59808 -0.40244,0.34787 0.17095,0.82345 0.24088,1.56711 0.15541,1.65258 -0.0855,0.0855 -0.15541,0.0287 -0.15541,-0.12626 0,-0.15492 -0.30511,-0.79985 -0.67802,-1.43316 -0.67782,-1.15116 -0.67796,-1.15124 -0.50087,-0.25849 0.13207,0.66578 0.0954,0.84249 -0.14402,0.6945 -0.23844,-0.14736 -0.27476,0.0128 -0.14098,0.6219 0.20855,0.94954 -0.058,1.62685 -0.41721,1.05999 -0.33765,-0.53288 -0.30707,0.34455 0.0442,1.26848 0.18702,0.49191 0.34582,0.629 0.479,0.41352 0.12056,-0.19507 0.34676,0.22636 0.57288,1.0673 l 0.37366,1.38964 0.14144,-1.05833 c 0.13536,-1.01289 0.16375,-0.96177 0.66109,1.19063 l 0.51966,2.24895 0.13989,-1.19062 0.1399,-1.19063 0.33073,1.7503 c 0.1819,0.96267 0.33073,2.07857 0.33073,2.4798 0,0.61844 0.0604,0.67935 0.39687,0.40011 0.34618,-0.2873 0.39688,-0.0988 0.39688,1.47573 0,2.00565 0.42815,2.0856 0.59853,0.11177 0.0577,-0.66843 0.12304,-0.1684 0.14899,1.1401 0.0516,2.60082 0.55497,3.01456 0.60582,0.49793 0.0299,-1.48141 0.0338,-1.48864 0.23918,-0.4474 0.11481,0.58208 0.14206,1.40427 0.0606,1.82708 -0.11046,0.57303 -0.0639,0.71667 0.18277,0.5642 0.25454,-0.15732 0.30989,0.16926 0.23974,1.41455 -0.11545,2.04926 0.21259,2.12251 0.43344,0.0968 0.29981,-2.75011 0.37411,-2.62328 0.27123,0.46302 -0.10815,3.24483 0.1781,3.47274 0.63464,0.50529 l 0.26092,-1.69591 -0.12871,2.24896 c -0.0708,1.23692 -0.19926,2.66567 -0.28551,3.175 -0.24769,1.46279 0.23865,0.68196 0.62091,-0.99689 l 0.34533,-1.51665 -0.15643,1.58414 c -0.13775,1.39501 -0.77917,4.28581 -1.29228,5.82419 -0.17578,0.52702 -0.17477,0.52704 0.25,0.005 0.91135,-1.1209 2.0777,-6.78333 2.41836,-11.74074 0.10357,-1.50717 0.27494,-2.57873 0.38082,-2.38125 0.27918,0.52071 -0.15349,7.36214 -0.64184,10.14864 -1.01879,5.81326 -2.97864,10.87222 -6.09875,15.74271 -0.60595,0.94588 -1.40956,2.20372 -1.78579,2.7952 -0.79409,1.24835 -1.9873,2.48931 -3.19703,3.32496 l -0.85178,0.58839 0.64045,-0.7074 c 0.35225,-0.38907 0.55736,-0.7905 0.45579,-0.89206 -0.10157,-0.10157 -0.92555,0.53091 -1.83108,1.4055 -1.72395,1.66507 -3.17934,2.79944 -3.96151,3.08773 -0.65517,0.24147 -0.56058,-0.0703 0.34148,-1.12566 1.52316,-1.78199 0.75536,-1.42532 -1.27338,0.59153 -1.13101,1.12437 -2.14304,2.04431 -2.24896,2.04431 -0.10592,0 -0.19258,-0.17859 -0.19258,-0.39687 0,-0.50429 -0.12853,-0.49822 -0.95793,0.0452 -0.57335,0.37568 -0.70952,0.38581 -0.90629,0.0674 -0.1978,-0.32006 -0.28128,-0.31609 -0.57273,0.0272 -0.18765,0.22103 -0.62776,0.63717 -0.97803,0.92476 l -0.63685,0.52288 0.14899,-0.59505 c 0.19346,-0.77265 -0.22256,-1.02706 -0.5818,-0.3558 -0.39854,0.74467 -0.35148,0.92536 0.31745,1.21883 0.32742,0.14365 0.63336,0.52907 0.67986,0.85649 0.0685,0.48235 0.25309,0.59532 0.97273,0.59532 0.8171,0 0.94691,0.12003 1.62198,1.49983 0.40359,0.82491 0.7456,1.92624 0.76002,2.4474 0.0212,0.76749 0.2929,1.22409 1.42957,2.40277 0.77185,0.80036 1.75829,1.90169 2.19209,2.44739 l 0.78874,0.99219 h -3.03664 c -3.47546,0 -3.4066,0.0493 -3.16767,-2.26573 0.15471,-1.49905 0.14922,-1.51459 -0.47985,-1.35778 -0.34999,0.0872 -1.16266,0.24231 -1.80594,0.3446 -1.05605,0.16792 -1.22326,0.11865 -1.72254,-0.5075 l -0.55295,-0.69347 -1.50303,0.46504 c -0.82666,0.25578 -1.7184,0.65658 -1.98163,0.89068 -0.26322,0.2341 -0.9529,0.62163 -1.5326,0.86118 -1.26503,0.52276 -1.09586,0.68978 1.51703,1.49771 0.98226,0.30373 1.78593,0.59202 1.78593,0.64065 0,0.0486 -1.10132,0.0618 -2.44739,0.0293 -2.84136,-0.0687 -4.901679,-0.83564 -6.356979,-2.36639 -1.138427,-1.19746 -2.039774,-1.67662 -2.315295,-1.23082 -0.185415,0.30001 -0.924575,0.28348 -2.367295,-0.0529 -0.282406,-0.0658 -0.538034,0.43839 -0.926041,1.82667 l -0.535955,1.91763 -1.256771,6e-4 c -0.691224,3.3e-4 -1.256771,-0.10392 -1.256771,-0.23167 z m 7.578157,-4.72867 c -0.0902,-0.5457 -0.165309,-1.31961 -0.166911,-1.71979 -0.0051,-1.2839 -0.487881,-0.77659 -0.673317,0.70759 -0.193722,1.5505 -0.06049,2.00439 0.588347,2.00439 0.333338,0 0.38333,-0.19692 0.251881,-0.99219 z m 10.551903,0.46071 c 0.78381,-0.29801 0.74682,-0.68772 -0.23838,-2.51123 -0.9137,-1.69116 -1.33279,-1.40809 -1.48751,1.00473 -0.14649,2.28452 -0.19928,2.23844 1.72589,1.5065 z m 3.98021,-0.53827 c 1.7011,-0.29905 3.03448,-0.74782 3.00942,-1.01287 -0.009,-0.0915 -0.27753,-0.88071 -0.59751,-1.75384 l -0.58179,-1.5875 -1.98217,0.076 c -1.0902,0.0418 -2.43796,0.14311 -2.99504,0.22519 -0.93156,0.13726 -0.97254,0.17749 -0.51046,0.50114 0.27632,0.19354 0.83481,1.13401 1.24108,2.08992 0.40626,0.9559 0.76293,1.73801 0.79259,1.73801 0.0297,0 0.7604,-0.1242 1.62388,-0.276 z m -15.231102,-5.80942 c 0,-0.14552 -0.12609,-0.26458 -0.280199,-0.26458 -0.154109,0 -0.206613,0.11906 -0.116676,0.26458 0.08994,0.14552 0.216026,0.26459 0.280198,0.26459 0.06417,0 0.116677,-0.11907 0.116677,-0.26459 z m 12.236982,-0.17777 c 0.10914,-0.0649 0.19844,-0.64906 0.19844,-1.29809 0,-1.08742 -0.0467,-1.16944 -0.59532,-1.04486 -0.32742,0.0744 -1.07156,0.2372 -1.65364,0.36187 -0.58208,0.12467 -1.64719,0.60189 -2.36691,1.06047 -0.71971,0.45859 -1.45682,0.8338 -1.63803,0.8338 -0.1812,0 -0.41176,0.13317 -0.51235,0.29592 -0.13348,0.21599 0.70206,0.24366 3.09324,0.10243 1.80187,-0.10643 3.36543,-0.24662 3.47457,-0.31154 z m -5.27829,-2.22769 c 2.80611,-0.29613 7.2059,-1.42915 9.51455,-2.45015 l 1.44301,-0.63816 0.18371,-1.62377 c 0.25341,-2.23986 0.14702,-20.90279 -0.1201,-21.06788 -0.11892,-0.0735 -0.28405,-0.0239 -0.36696,0.11029 -0.23514,0.38046 -1.4315,-0.29837 -1.58043,-0.89674 -0.0724,-0.29105 -0.21613,-1.3588 -0.31932,-2.3728 -0.19381,-1.90438 -0.57502,-1.81084 -0.6133,0.1505 -0.0102,0.52399 -0.14761,1.3228 -0.3053,1.77513 -0.30685,0.88025 -1.23401,1.38022 -1.56534,0.84411 -0.1441,-0.23316 -0.2488,-0.23973 -0.38213,-0.024 -0.4456,0.721 -1.2326,-0.73155 -1.98423,-3.6623 -0.24006,-0.93602 -0.56229,-1.74379 -0.71607,-1.79505 -0.17127,-0.0571 -0.34659,0.70475 -0.45252,1.96644 -0.25427,3.02865 -0.58156,4.00459 -1.41292,4.21325 -0.48609,0.122 -0.78519,0.0442 -1.00949,-0.26252 -0.42371,-0.57946 -0.5633,-0.55031 -0.76333,0.15942 l -0.16777,0.59532 -0.50448,-0.59985 c -0.53165,-0.63216 -1.45723,-3.21591 -1.75183,-4.89026 -0.096,-0.5457 -0.29497,-0.99219 -0.442122,-0.99219 -0.16683,0 -0.15661,-0.13364 0.0272,-0.35507 0.162082,-0.19529 0.245042,-0.40472 0.184362,-0.4654 -0.13249,-0.13249 -0.932252,-7.65627 -0.969992,-9.12522 l -0.0266,-1.03452 -0.25497,1.05834 c -0.14319,0.59439 -0.21853,4.26721 -0.17186,8.37835 0.0787,6.93276 0.0567,7.33647 -0.41537,7.63115 -0.50179,0.31321 -0.91482,0.0305 -0.969446,-0.66367 -0.01145,-0.14552 -0.13939,0.0327 -0.284305,0.39614 l -0.263483,0.66072 -0.507613,-0.66072 -0.507614,-0.66072 -0.0059,0.7276 c -0.0092,1.1338 -0.503412,0.86066 -1.20139,-0.66392 -1.090648,-2.38229 -1.49551,-4.95359 -1.540953,-9.78667 -0.02292,-2.43723 -0.130962,-4.43152 -0.240103,-4.43177 -0.10914,-2.5e-4 -0.203586,0.32697 -0.209878,0.72715 -0.0063,0.40019 -0.166861,3.52212 -0.356818,6.93763 -0.189958,3.41551 -0.294279,6.40542 -0.231826,6.64424 0.06245,0.23882 -0.07128,0.50515 -0.297185,0.59184 -0.48765,0.18713 -2.013147,-0.29761 -2.013147,-0.63969 0,-0.13129 -0.119063,-0.2387 -0.264584,-0.2387 -0.14552,0 -0.264583,0.29765 -0.264583,0.66146 0,0.75328 0.0053,0.75095 -0.908817,0.40342 -0.440973,-0.16766 -0.678683,-0.16766 -0.678683,0 0,0.14192 -0.170039,0.25803 -0.377865,0.25803 -0.461132,0 -1.314954,-2.20022 -1.812592,-4.6709 -0.30575,-1.51799 -0.457891,-1.82508 -0.939279,-1.89594 -0.544359,-0.0801 -0.576988,0.0238 -0.623273,1.98438 -0.0865,3.66406 0.01101,3.35723 -1.101316,3.46561 -0.548872,0.0535 -1.169469,-0.0451 -1.379104,-0.21911 -0.305181,-0.25328 -0.381155,-0.23076 -0.381155,0.11294 0,0.2361 -0.156142,0.42927 -0.346982,0.42927 -0.217385,0 -0.526933,-0.79282 -0.828781,-2.1227 -0.51328,-2.26139 -0.641616,-2.47345 -1.335718,-2.2071 -0.366833,0.14077 -0.429614,0.49181 -0.366875,2.05138 0.04163,1.03485 -0.05294,2.10841 -0.210151,2.38569 -0.278248,0.49074 -0.298504,0.48935 -0.762365,-0.0524 -0.443395,-0.51785 -0.500843,-0.5253 -0.826367,-0.10726 -0.32622,0.41893 -0.37882,0.41354 -0.77892,-0.0799 -0.410477,-0.50623 -0.421552,-0.48903 -0.255517,0.39688 0.220154,1.17466 0.38736,4.43999 0.528387,10.31875 0.118157,4.92545 0.450532,6.4666 1.883047,8.73125 0.807781,1.27701 1.202147,1.58355 4.226284,3.28502 2.886444,1.62399 5.522945,2.56228 8.598959,3.06023 1.091406,0.17668 2.460625,0.40801 3.042708,0.51406 1.297998,0.23649 6.241376,0.1 9.736815,-0.26894 z m -11.283311,-2.31172 c -0.482906,-0.53361 -0.588723,-1.77294 -0.173298,-2.02969 0.40457,-0.25004 0.314806,-0.66146 -0.144319,-0.66146 -0.583269,0 -1.707765,-1.20189 -1.707765,-1.8253 0,-0.28954 0.280734,-0.85281 0.623853,-1.25171 0.578879,-0.67299 0.688555,-0.70305 1.521354,-0.41693 0.819729,0.28162 0.831782,0.3 0.139095,0.21215 -1.23231,-0.15629 -2.174337,1.1542 -1.543374,2.14705 0.276394,0.43492 2.131129,1.18968 2.445719,0.99525 0.139115,-0.086 0.252937,-0.0494 0.252937,0.0814 0,0.13075 -0.297657,0.37335 -0.661459,0.5391 -0.718018,0.32716 -0.897919,1.29335 -0.343958,1.84731 0.389786,0.38979 1.915834,0.41528 2.610311,0.0436 0.356355,-0.19071 0.511773,-0.18873 0.511773,0.007 0,0.80829 -2.853648,1.06098 -3.530869,0.31266 z M 80.363743,135.67395 c -1.316563,-0.36191 -2.41144,-1.65285 -2.186052,-2.57752 0.09193,-0.37714 0.381826,-0.90459 0.644216,-1.17212 0.460115,-0.46911 0.45482,-0.50865 -0.148974,-1.11245 -0.344326,-0.34432 -0.626047,-0.77328 -0.626047,-0.95322 0,-0.19177 0.137954,-0.13852 0.333317,0.12865 0.28645,0.39175 0.463159,0.4127 1.256771,0.14904 0.507899,-0.16874 1.072282,-0.49293 1.254183,-0.72042 0.200756,-0.25107 0.330729,-0.28977 0.330729,-0.0985 0,0.19902 0.463139,0.31665 1.256771,0.31921 0.691224,0.002 1.41568,0.10478 1.609901,0.22789 0.205893,0.13052 -0.207799,0.16995 -0.992187,0.0946 -0.885807,-0.0851 -1.345318,-0.0291 -1.345318,0.16394 0,0.29336 0.331995,0.39951 2.175024,0.69544 1.506944,0.24197 2.587476,1.2863 2.587476,2.50077 0,0.99753 -0.365512,1.51742 -1.455208,2.06984 -0.824508,0.41798 -3.598063,0.58626 -4.694602,0.28484 z m 3.758941,-2.19331 c 0.175867,-0.2119 0.248612,-0.5004 0.161655,-0.6411 -0.263341,-0.42609 -1.672913,-0.61539 -2.256548,-0.30303 -0.444314,0.23779 -0.495569,0.39136 -0.270793,0.81136 0.335729,0.62732 1.883174,0.71417 2.365686,0.13277 z m -2.640266,-2.72357 c -0.01345,-0.65855 -0.453922,-0.85718 -1.269979,-0.5727 -0.463105,0.16144 -0.775592,0.40099 -0.694416,0.53233 0.177279,0.28685 1.97018,0.32369 1.964395,0.0404 z m 25.800932,5.01565 c -2.45493,-0.24891 -4.89479,-1.73466 -4.89479,-2.98068 0,-0.598 1.24714,-2.10111 1.74331,-2.10111 0.48575,0 0.47621,-0.06 -0.18861,-1.1868 -0.30908,-0.52385 -0.49855,-1.01588 -0.42104,-1.0934 0.0775,-0.0775 0.21936,0.10617 0.31522,0.40818 0.0958,0.302 0.34485,0.5491 0.55332,0.5491 0.20848,0 0.37905,0.10616 0.37905,0.2359 0,0.29191 1.25855,0.62886 1.58811,0.42518 0.49399,-0.3053 -0.0382,-0.84575 -0.74147,-0.75293 l -0.71435,0.0943 0.71138,-0.28244 c 0.39195,-0.15561 0.76189,-0.54228 0.82387,-0.86111 l 0.11248,-0.57867 0.036,0.59531 c 0.0303,0.50129 0.19275,0.59841 1.02822,0.61494 0.5457,0.0108 1.46844,0.24008 2.05052,0.50954 1.29981,0.60171 1.1115,0.66448 -0.39688,0.13229 -1.30073,-0.45892 -2.38125,-0.51638 -2.38125,-0.12662 0,0.29446 0.55156,0.54524 2.38125,1.08273 2.45375,0.72081 3.41286,2.7692 2.00693,4.28622 -0.77027,0.83114 -2.23223,1.20845 -3.9913,1.03009 z m 1.6922,-2.94247 c 0.98643,-0.62461 -0.97385,-1.65121 -2.33066,-1.22058 -0.60174,0.19098 -0.7534,1.07263 -0.22144,1.28728 0.55398,0.22353 2.16003,0.18156 2.5521,-0.0667 z m -39.68466,-6.39018 c -0.154154,-0.49968 -0.325982,-2.57539 -0.381841,-4.61268 -0.06193,-2.25867 -0.01848,-3.31584 0.111337,-2.70906 0.342521,1.60098 0.558708,1.46726 0.57508,-0.3557 0.01499,-1.66878 0.423661,-4.38973 0.483492,-3.2191 0.06208,1.21472 0.443987,0.51992 1.019167,-1.8542 0.325525,-1.34364 0.695174,-2.47742 0.821441,-2.51951 0.126267,-0.0421 0.178029,-0.39979 0.115026,-0.79489 -0.07316,-0.45881 -0.03067,-0.60041 0.117593,-0.39189 0.154125,0.21676 0.486095,-0.45015 0.987773,-1.98438 0.415596,-1.27097 0.807468,-2.1595 0.870826,-1.97451 0.06336,0.185 -0.01463,0.70878 -0.173309,1.16396 -0.158678,0.45519 -0.279136,1.07774 -0.267683,1.38344 0.01145,0.30571 0.537864,-0.93245 1.169802,-2.75146 0.668127,-1.92318 1.166725,-3.03047 1.191385,-2.64583 0.04166,0.6498 0.04841,0.64746 0.383189,-0.13229 0.187431,-0.43657 0.418534,-1.27 0.513562,-1.85209 0.165359,-1.01288 0.15395,-1.0356 -0.265669,-0.52916 -0.359554,0.43395 -0.409733,0.44585 -0.278866,0.0661 0.08777,-0.25466 0.06043,-0.46302 -0.06075,-0.46302 -0.121183,0 -0.42495,0.53578 -0.675037,1.19063 -0.250087,0.65484 -0.563919,1.19062 -0.697404,1.19062 -0.295729,0 -0.295625,0.0488 -0.0021,-0.97482 0.187898,-0.65516 0.155115,-0.87184 -0.149593,-0.98877 -0.297271,-0.11408 -0.351582,-0.008 -0.227998,0.4439 0.13923,0.5095 0.121349,0.52852 -0.126147,0.13419 -0.208428,-0.33209 -0.20711,-0.76125 0.0048,-1.548058 0.161222,-0.59873 0.237904,-1.14383 0.170405,-1.21133 -0.152557,-0.15255 -0.72968,1.623988 -1.647328,5.070928 -0.792901,2.97836 -1.003607,3.43672 -0.786025,1.70986 0.114204,-0.90639 0.0858,-1.05775 -0.122278,-0.65152 -0.203514,0.39732 -0.231281,0.19956 -0.111447,-0.79375 0.157936,-1.30915 0.866375,-3.68132 1.930785,-6.465148 0.302418,-0.79093 0.506407,-1.4815 0.453308,-1.5346 -0.262945,-0.26295 -1.809254,2.8384 -3.002078,6.021108 -1.310067,3.49553 -2.246147,7.37214 -3.129162,12.95885 -0.620011,3.92272 -0.228595,8.95308 0.934437,12.00909 0.398056,1.04594 0.598184,0.7394 0.251321,-0.38495 z m 9.462132,-4.81112 c 0.281381,-0.38493 0.13362,-6.07894 -0.153151,-5.9017 -0.105905,0.0654 -0.21463,0.75038 -0.24161,1.52207 -0.02698,0.77169 -0.121947,2.14721 -0.211038,3.05671 -0.157886,1.61182 0.05491,2.07652 0.605799,1.32292 z m 6.253048,-5.82084 c 0.0858,-2.21919 0.239534,-4.33255 0.341638,-4.69635 0.102104,-0.3638 0.106134,-0.58961 0.009,-0.50179 -0.304832,0.27548 -0.926252,4.0076 -1.111426,6.67501 -0.15002,2.16102 -0.116864,2.55803 0.21363,2.55803 0.321303,0 0.419085,-0.72101 0.547203,-4.0349 z m 21.61582,3.78593 c 0,-0.13693 -0.11906,-0.32255 -0.26458,-0.41249 -0.14552,-0.0899 -0.26459,0.0221 -0.26459,0.24897 0,0.22687 0.11907,0.41249 0.26459,0.41249 0.14552,0 0.26458,-0.11204 0.26458,-0.24897 z m 18.37814,-13.83554 c -0.10407,-0.61596 -0.38224,-1.26107 -0.61815,-1.43358 -0.23592,-0.1725 -0.44825,-0.29361 -0.47184,-0.26913 -0.0236,0.0245 0.14933,0.66959 0.38425,1.43357 0.51223,1.66579 0.97128,1.84085 0.70574,0.26914 z m -31.581297,58.46837 c 0.569009,-1.44374 0.767738,-1.79267 0.767738,-1.348 0,0.56402 -0.856926,2.73706 -1.079344,2.73706 -0.129718,0 0.0105,-0.62508 0.311606,-1.38906 z M 134.20528,121.5628 c 0.003,-0.58208 0.0571,-0.78905 0.12041,-0.45993 0.0633,0.32912 0.0609,0.80537 -0.005,1.05833 -0.0662,0.25296 -0.118,-0.0163 -0.11507,-0.5984 z m -2.82595,-17.4814 c -0.0973,-0.38775 -0.12591,-0.75603 -0.0636,-0.81839 0.0624,-0.0624 0.19302,0.20386 0.29034,0.59161 0.0973,0.38775 0.12592,0.75602 0.0635,0.81839 -0.0624,0.0624 -0.19302,-0.20386 -0.29034,-0.59161 z"
       id="path1" /></g></svg>
