<?xml version="1.0" encoding="UTF-8" standalone="no"?>
<!-- Created with Inkscape (http://www.inkscape.org/) -->

<svg
   width="87.788101mm"
   height="99.334923mm"
   viewBox="0 0 87.788101 99.334923"
   version="1.1"
   id="svg1"
   xml:space="preserve"
   xmlns="http://www.w3.org/2000/svg"
   xmlns:svg="http://www.w3.org/2000/svg"><defs
     id="defs1" /><g
     id="layer1"
     transform="translate(-61.771505,-102.11096)"><path
       style="fill:#000000"
       d="m 82.987724,201.19928 c 0.07389,-0.11956 -0.100973,-0.41888 -0.388594,-0.66514 -0.662193,-0.56699 -0.510706,-0.85802 1.586082,-3.04707 0.885394,-0.92435 1.609806,-1.82863 1.609806,-2.00951 0,-0.5734 1.032027,-1.33678 1.361625,-1.00718 0.688168,0.68817 3.296363,-1.36327 3.057923,-2.40516 -0.0718,-0.31373 -0.315444,-1.34433 -0.541433,-2.29022 -0.225989,-0.94588 -0.506406,-2.33783 -0.623148,-3.09322 l -0.212258,-1.37344 -1.833888,0.91042 c -2.011792,0.99873 -2.109165,1.03235 -1.870279,0.64583 C 85.2235,186.71907 85.1668,186.6 85.007574,186.6 c -0.206231,0 -0.20313,-0.16139 0.01078,-0.56109 0.187282,-0.34994 0.196683,-0.49707 0.02498,-0.39095 -0.180373,0.11148 -0.22396,-0.14627 -0.126401,-0.74746 0.210831,-1.29919 -0.09186,-2.24032 -0.828489,-2.57595 -0.571674,-0.26047 -0.766248,-0.15609 -1.989675,1.06733 -1.510536,1.51054 -2.237298,1.76494 -1.967155,0.6886 0.09213,-0.36708 0.08656,-1.40888 -0.01238,-2.3151 -0.175889,-1.61096 -0.209189,-1.6677 -1.494811,-2.54692 -3.263119,-2.2316 -5.26958,-5.43539 -5.824444,-9.30009 l -0.324738,-2.26184 -1.41299,-0.88274 c -1.437894,-0.8983 -3.986659,-3.44049 -5.424395,-5.41039 -1.093888,-1.49879 -2.496888,-4.33766 -2.695948,-5.45507 l -0.164969,-0.92604 0.517979,1.12448 c 0.639477,1.38824 0.82052,1.43446 0.518127,0.13229 -0.292554,-1.2598 -0.293695,-1.38906 -0.01226,-1.38906 0.126922,0 0.302956,0.44649 0.391186,0.99219 0.08823,0.5457 0.561761,1.82766 1.05229,2.8488 0.718926,1.4966 1.47339,2.43294 3.890714,4.82865 1.649362,1.63462 3.096049,2.97203 3.214859,2.97203 0.420912,0 0.208457,-2.09925 -0.299713,-2.96144 -0.735979,-1.24871 -1.340735,-3.78534 -1.309979,-5.49467 0.02038,-1.13246 0.07454,-1.31536 0.238209,-0.80431 0.11651,0.3638 0.235573,1.07818 0.264584,1.5875 0.04847,0.85099 0.06897,0.87243 0.252971,0.26458 l 0.200224,-0.66145 0.183558,0.79375 c 0.55394,2.39538 0.63241,2.35415 0.659153,-0.34635 0.0174,-1.75753 -0.06709,-2.66944 -0.237573,-2.56407 -0.145521,0.0899 -0.264583,0.52071 -0.264583,0.95727 0,0.43656 -0.101633,0.73094 -0.22585,0.65417 -0.124218,-0.0768 -0.115406,-0.78063 0.01958,-1.56414 l 0.245432,-1.42455 -1.431859,-2.10282 c -1.833585,-2.69279 -3.579588,-6.33668 -4.129309,-8.61783 -0.237116,-0.98395 -0.505958,-1.78983 -0.597426,-1.79086 -0.299352,-0.003 -2.03881,5.63145 -2.490556,8.06793 -0.242829,1.30968 -0.535892,2.73843 -0.65125,3.175 -0.192973,0.73028 -0.211742,0.69855 -0.234755,-0.39688 -0.05819,-2.76978 0.921674,-6.63206 2.483615,-9.78958 0.467903,-0.94589 0.922198,-2.34818 1.009544,-3.11621 0.09149,-0.80452 0.517217,-2.06887 1.004369,-2.98285 l 0.845558,-1.58644 -0.635526,-0.72123 c -0.34954,-0.39668 -1.097789,-1.19752 -1.662776,-1.77965 -2.180635,-2.2468 -4.114441,-8.01641 -3.775087,-11.26317 0.280955,-2.68803 0.570603,-2.70541 0.569787,-0.0342 -7.04e-4,2.30251 0.08912,2.7834 0.874691,4.68269 1.126599,2.72382 2.655869,5.06615 4.329972,6.63208 l 1.330645,1.24466 1.165994,-1.16599 1.165994,-1.166 -0.522685,-1.02521 c -0.287477,-0.56387 -0.602673,-1.73222 -0.700436,-2.59633 -0.09776,-0.86411 -0.31006,-1.60745 -0.471772,-1.65185 -3.296938,-0.90537 -5.555178,-3.21013 -6.358091,-6.48907 -0.08908,-0.3638 0.140972,-0.0134 0.511237,0.77872 1.232588,2.63685 2.721756,4.01617 4.628349,4.28694 0.750149,0.10654 0.768012,-0.0404 0.237639,-1.95421 -0.273441,-0.98672 -0.283549,-1.6279 -0.0474,-3.00654 0.394694,-2.30421 2.116551,-5.8696 3.388453,-7.01635 0.54522,-0.49157 1.957005,-1.78863 3.1373,-2.88234 2.389541,-2.21427 5.700549,-4.71656 9.289741,-7.02072 l 2.38125,-1.52869 -1.871695,2.09399 c -2.345833,2.62444 -4.894497,5.73475 -4.787158,5.84209 0.04474,0.0447 1.971232,-0.94903 4.28109,-2.20839 6.637362,-3.61874 9.260594,-4.34761 16.057486,-4.46163 2.43061,-0.0408 4.5417,-0.14979 4.69131,-0.24225 0.50105,-0.30967 7.0062,-0.39494 8.97418,-0.11764 1.1871,0.16728 2.78541,0.65397 4.10104,1.24879 l 2.15584,0.97469 3.96875,-0.0217 c 2.56217,-0.014 4.8127,-0.18268 6.35,-0.47587 1.30969,-0.24979 2.79797,-0.51155 3.30729,-0.5817 l 0.92604,-0.12756 -1.05833,0.51175 c -0.58209,0.28146 -1.53459,0.70699 -2.11667,0.94562 -0.58208,0.23863 -1.8782,0.89169 -2.88025,1.45126 l -1.82192,1.01738 1.02817,0.47925 c 2.11782,0.98717 5.3377,4.77849 8.04548,9.47334 0.96803,1.67841 2.76067,6.14176 3.69782,9.20688 0.62728,2.05166 1.35258,2.78643 5.09967,5.16626 1.27657,0.81078 2.25992,1.53526 2.18522,1.60996 -0.33675,0.33676 -4.98723,-2.51395 -5.8926,-3.61212 -0.53221,-0.64554 -0.59982,-0.24328 -0.21758,1.29459 0.19739,0.79417 0.43752,1.78966 0.53362,2.2122 l 0.17473,0.76825 3.95351,-0.17112 c 2.17443,-0.0941 3.95351,-0.12086 3.95351,-0.0594 0,0.2485 -2.92279,0.93318 -5.15938,1.20861 -1.30969,0.16128 -2.48931,0.40057 -2.62139,0.53176 -0.33123,0.32901 0.16247,0.86481 1.71466,1.86085 0.71586,0.45936 1.23546,0.94215 1.15468,1.07286 -0.0808,0.13072 -0.69118,0.23766 -1.35643,0.23766 h -1.20955 l 0.1557,2.31511 c 0.42996,6.39293 0.45718,7.43125 0.22371,8.53281 -0.2268,1.07005 -0.25529,0.92439 -0.28135,-1.4383 -0.0159,-1.44592 -0.20385,-3.35092 -0.41757,-4.23334 -0.21372,-0.88242 -0.80235,-3.34637 -1.30807,-5.47545 -0.50571,-2.12908 -1.34079,-5.09781 -1.85573,-6.59717 -0.51494,-1.49937 -0.8944,-2.76799 -0.84324,-2.81915 0.3355,-0.3355 2.47463,5.76544 3.34017,9.52638 0.63534,2.7607 1.05991,3.35092 0.57007,0.79251 -0.16105,-0.84119 -0.41992,-2.58077 -0.57525,-3.86574 -0.49849,-4.12352 -3.32322,-13.79429 -4.6117,-15.78864 -0.91043,-1.40917 -2.1275,-1.6394 -6.16739,-1.16666 -5.70692,0.66781 -10.11234,1.98261 -13.1466,3.9236 -1.57295,1.0062 -2.26321,1.98677 -2.94683,4.18614 -0.25954,0.83498 -0.52625,1.46378 -0.5927,1.39733 -0.0665,-0.0665 0.15544,-0.97998 0.49309,-2.03007 0.80693,-2.50957 1.92838,-3.628 5.18426,-5.17033 3.84235,-1.82014 7.87844,-2.73829 12.32882,-2.80463 1.99954,-0.0298 3.63665,-0.13472 3.63802,-0.23314 0.005,-0.35213 -2.80226,-4.74214 -3.96051,-6.19366 -1.77852,-2.22885 -2.32692,-2.5312 -4.85173,-2.67492 -1.7586,-0.10011 -2.46375,-0.0171 -3.75297,0.44192 -2.33907,0.83278 -2.75457,0.91252 -1.71979,0.33007 2.02252,-1.13845 7.59044,-3.83546 8.40052,-4.06907 0.47294,-0.13638 0.85989,-0.36847 0.85989,-0.51574 0,-0.14726 -0.0902,-0.21204 -0.20033,-0.14395 -0.11018,0.0681 -1.80682,0.26 -3.77031,0.42645 -1.96349,0.16644 -4.04623,0.42013 -4.62832,0.56374 -0.58208,0.14361 -2.9038,0.36583 -5.15937,0.49382 -3.28462,0.18637 -4.52242,0.37157 -6.21771,0.93025 -3.6113,1.19012 -3.6922,1.21182 -3.39002,0.90964 0.15314,-0.15314 1.24187,-0.61205 2.41938,-1.01978 1.17751,-0.40774 2.05645,-0.82582 1.9532,-0.92907 -0.10325,-0.10325 0.16922,-0.10888 0.60548,-0.0125 0.53422,0.11799 0.67668,0.093 0.43631,-0.0764 -0.56032,-0.39505 1.16031,-0.61658 4.53399,-0.58375 4.16498,0.0405 4.42187,0.0271 4.42187,-0.23092 0,-0.12636 -0.46821,-0.29255 -1.04048,-0.36931 -0.57226,-0.0768 -1.73311,-0.4616 -2.57968,-0.85522 -2.50737,-1.16581 -4.18321,-1.16981 -7.49234,-0.0179 -4.77921,1.66366 -8.91558,4.0348 -11.727451,6.72267 -1.439355,1.37587 -2.775056,3.90638 -3.255905,6.16837 -0.347707,1.63567 -0.364503,2.35232 -0.106309,4.53611 0.168652,1.42645 0.473297,3.1473 0.676988,3.82412 0.493866,1.64099 0.291359,1.77078 -0.230804,0.14792 -1.213927,-3.77283 -1.269157,-8.09564 -0.137098,-10.73056 1.001518,-2.33108 2.116657,-3.72178 4.514602,-5.63018 2.837587,-2.2583 4.734967,-3.36844 7.717427,-4.5154 3.93847,-1.51462 4.28928,-1.66881 3.82918,-1.6831 -1.55396,-0.0482 -8.54365,2.92121 -11.2399,4.77508 -1.310482,0.90105 -3.773785,4.09775 -4.887765,6.34299 -0.441363,0.88957 -0.870713,1.54917 -0.954111,1.46577 -0.240879,-0.24088 1.417292,-3.41255 2.68296,-5.13183 2.026326,-2.75257 5.359186,-5.07704 9.591696,-6.68963 l 2.07128,-0.78916 -2.38125,0.19569 c -1.30969,0.10762 -2.8575,0.18692 -3.43958,0.1762 -4.767061,-0.0877 -11.715002,1.01146 -13.979848,2.21164 -0.460255,0.2439 -0.991495,0.47004 -1.180531,0.50253 -0.189037,0.0325 -0.78435,0.39576 -1.322917,0.80727 -0.538568,0.4115 -1.064137,0.72029 -1.167931,0.6862 -0.238979,-0.0785 -5.780558,3.14825 -7.311765,4.25748 -1.203702,0.87199 -1.350798,1.16545 -2.871198,5.72822 -0.399565,1.19911 -0.734787,2.97905 -0.847108,4.49792 l -0.185878,2.51354 -0.204451,-1.45521 c -0.142008,-1.01075 -0.07846,-2.05582 0.208058,-3.4217 0.22688,-1.08157 0.376306,-2.0027 0.332057,-2.04695 -0.04425,-0.0443 -0.355712,0.69925 -0.69214,1.65222 -0.504344,1.42862 -0.581122,2.03101 -0.437516,3.43269 0.09579,0.93501 0.232287,1.90987 0.303318,2.16636 0.07103,0.25649 -0.06415,0.0496 -0.300413,-0.4597 -0.326165,-0.70314 -0.398779,-1.43552 -0.301677,-3.04271 0.107598,-1.78091 0.319783,-2.54782 1.337649,-4.83474 1.280774,-2.87762 1.855311,-3.68882 6.254806,-8.83131 1.522369,-1.77947 2.593931,-3.13368 2.381251,-3.00935 -1.503592,0.87892 -6.816914,5.13991 -9.01234,7.22739 -2.782974,2.64615 -3.348885,3.47375 -4.068854,5.95035 -0.421322,1.4493 -0.4169,1.60609 0.104239,3.69621 0.58715,2.35486 2.518772,6.54465 3.621454,7.85511 0.37481,0.44544 0.560494,0.80988 0.412632,0.80988 -0.471408,0 -1.890056,-1.92353 -2.829463,-3.83645 -0.915404,-1.86404 -1.696912,-4.43197 -1.728008,-5.67799 l -0.01677,-0.67201 -0.269532,0.66145 c -0.568946,1.39625 0.335253,4.08551 2.901967,8.63098 l 0.765098,1.35494 -2.151644,2.24058 c -3.287696,3.42359 -4.449943,6.01493 -3.974648,8.86185 l 0.211852,1.26895 0.204125,-1.86067 c 0.331168,-3.01872 0.752164,-3.58435 0.584389,-0.78517 -0.17962,2.99683 0.345948,5.63837 1.648211,8.28401 1.064638,2.16289 2.949024,5.01661 4.126083,6.24854 0.692052,0.72432 0.670109,0.6541 -0.200592,-0.64192 -1.096352,-1.6319 -2.566871,-4.66657 -3.315045,-6.84118 -0.863912,-2.511 -0.536297,-2.12425 0.803642,0.9487 0.712531,1.63408 1.566171,3.42002 1.896979,3.96875 0.779279,1.29263 3.716594,5.08475 4.442282,5.73505 0.709963,0.63621 0.723334,0.33275 0.02834,-0.64327 -0.753003,-1.0575 -1.788313,-3.92036 -2.003,-5.53875 -0.09985,-0.75267 -0.35225,-1.5392 -0.5609,-1.74785 -0.210111,-0.21011 -0.252889,-0.37937 -0.09588,-0.37937 0.16825,0 0.285129,-0.61841 0.287534,-1.52135 0.0027,-1.0282 0.08284,-1.3968 0.247125,-1.13711 0.133691,0.21133 0.185624,0.4772 0.115407,0.59081 -0.196057,0.31723 0.1905,2.06765 0.456612,2.06765 0.129326,0 0.235138,-0.30141 0.235138,-0.6698 0,-0.36839 0.246382,-1.40118 0.547515,-2.29508 l 0.547516,-1.62528 -0.554864,-1.73981 c -0.808748,-2.53589 -1.304208,-5.75267 -0.842053,-5.46704 0.125004,0.0773 0.302749,0.78259 0.394988,1.5674 0.203683,1.73302 1.289008,5.0561 2.325657,7.12076 0.788429,1.57029 1.203874,2.03726 0.749692,0.84267 -0.473789,-1.24616 -0.237672,-1.32072 0.364409,-0.11507 1.563619,3.1311 2.005815,3.66661 3.629366,4.39522 0.85874,0.38538 1.696714,0.8638 1.862165,1.06315 0.38335,0.46191 0.258365,0.45535 -0.950884,-0.0499 -0.542824,-0.2268 -1.053678,-0.34565 -1.135232,-0.26409 -0.190562,0.19056 4.652834,4.98711 5.486158,5.43309 0.543162,0.29069 0.502201,0.17711 -0.295921,-0.82055 -2.454819,-3.06856 -4.340071,-7.39857 -5.259574,-12.08009 -0.503719,-2.56462 -0.130672,-2.21956 0.493404,0.45638 0.490594,2.1036 2.630835,7.83682 2.845418,7.62224 0.04478,-0.0448 -0.160506,-0.97111 -0.456183,-2.05853 -1.043047,-3.83602 -0.934144,-10.02782 0.215471,-12.25093 0.563219,-1.08914 0.702155,-0.70978 0.186689,0.50975 -0.29567,0.69952 -0.470789,2.05902 -0.542665,4.21286 -0.116654,3.49567 0.431251,7.15307 1.495113,9.98024 0.558094,1.48311 3.081097,5.28724 3.940465,5.94134 0.712588,0.54239 0.06427,0.388 -1.346716,-0.3207 -2.037515,-1.02338 -6.124066,-4.2103 -7.653188,-5.96836 -1.38364,-1.59081 -1.782279,-1.79981 -4.789975,-2.51134 l -0.727604,-0.17213 v 1.51184 c 0,1.67186 0.652389,4.54238 1.172747,5.16011 0.183876,0.21828 0.408212,0.60523 0.498524,0.85989 0.130338,0.36753 0.47969,0.46436 1.693862,0.46949 2.718385,0.0115 5.895284,0.99601 5.895284,1.82693 0,0.64184 -0.726905,1.55803 -1.590422,2.00457 -1.17393,0.60707 -3.596714,0.50061 -5.156454,-0.22657 -1.527351,-0.71208 -2.009754,-1.20498 -2.024845,-2.0689 -0.0237,-1.35661 -0.276299,-1.77002 -1.824931,-2.98669 l -1.612663,-1.26698 0.217678,1.9509 c 0.238325,2.13594 0.261062,4.32221 0.101465,9.75611 -0.127703,4.34797 0.219645,5.67211 2.010376,7.66383 2.399949,2.66932 9.623964,6.7317 13.640989,7.67093 4.556972,1.06546 10.484334,1.47044 14.495064,0.99034 3.31793,-0.39717 9.40963,-1.76217 11.11944,-2.49159 3.81246,-1.62642 7.94733,-4.81398 8.74607,-6.7423 0.24674,-0.59567 0.38954,-0.68131 0.78403,-0.47019 0.79807,0.42712 2.39538,0.29268 3.63131,-0.30562 1.33342,-0.6455 3.53584,-3.16103 4.63465,-5.29355 0.39481,-0.76622 0.71783,-1.24666 0.71783,-1.06765 0,0.5052 -1.58447,3.53036 -2.29071,4.37355 -0.59077,0.70532 -0.62491,0.91765 -0.51042,3.175 0.13065,2.57588 0.87551,5.44342 1.63072,6.27792 0.5426,0.59956 0.32869,0.62634 -1.23762,0.15495 -0.64307,-0.19354 -1.3121,-0.30426 -1.48673,-0.24605 -0.50435,0.16812 -3.53673,-1.39092 -4.78299,-2.45908 -0.62542,-0.53605 -1.20594,-0.90582 -1.29005,-0.82172 -0.0841,0.0841 -0.0273,1.34873 0.12631,2.81029 0.21447,2.04116 0.41232,2.82593 0.85322,3.38426 l 0.57401,0.72689 -1.14473,0.0843 c -1.65115,0.12159 -2.62074,-0.12015 -4.00633,-0.99886 l -1.22333,-0.77581 -0.15463,1.24206 c -0.0851,0.68313 -0.32948,1.92487 -0.54318,2.75942 -0.46076,1.79941 -0.46008,1.78993 -0.12909,1.78993 0.14269,0 0.92531,0.42595 1.73914,0.94655 0.81384,0.52061 1.85794,1.07577 2.32024,1.23369 0.4623,0.15793 1.25727,0.56634 1.76659,0.90757 1.52948,1.02472 5.69373,5.29015 6.21169,6.36263 0.26579,0.55033 0.65049,1.32803 0.8549,1.72821 0.32451,0.63529 0.32139,0.7276 -0.0246,0.7276 -0.21792,0 -0.45761,-0.0993 -0.53265,-0.22076 -0.19614,-0.31736 -2.27605,-0.35566 -2.27605,-0.0419 0,0.14448 -0.19228,0.26268 -0.4273,0.26268 -0.3843,0 -0.38742,-0.0609 -0.031,-0.60477 0.36263,-0.55344 0.34776,-0.66011 -0.17518,-1.25677 -0.7144,-0.81511 -4.69735,-4.37335 -6.11334,-5.46147 -1.03173,-0.79283 -4.63055,-2.61808 -5.42396,-2.75092 -0.21828,-0.0365 -1.28985,0.36403 -2.38125,0.89017 -2.28985,1.10387 -3.43959,1.4416 -3.43959,1.01036 0,-0.1613 0.14354,-0.29327 0.31898,-0.29327 0.17544,0 1.22708,-0.42614 2.33698,-0.94699 l 2.01801,-0.94699 0.33026,-2.16186 c 0.18165,-1.18903 0.39341,-2.54882 0.47059,-3.02176 0.164,-1.00497 0.11471,-1.02057 -1.12512,-0.35606 -0.83495,0.44751 -2.79206,1.03051 -4.95318,1.47551 -0.72563,0.14942 -0.73293,0.17056 -0.52917,1.53347 0.11364,0.76009 0.20661,2.39401 0.20661,3.63093 v 2.24896 l -1.85208,0.97699 c -1.7417,0.91875 -3.85722,1.68841 -6.3936,2.3261 l -1.101924,0.27704 -0.22099,1.64952 -0.22099,1.64952 -1.1102,0.0807 -1.1102,0.0807 0.144071,-1.0067 c 0.07924,-0.55369 0.250744,-1.42342 0.381121,-1.93275 0.334288,-1.30591 0.317243,-1.34676 -0.421459,-1.01019 -0.532747,0.24274 -0.661458,0.49262 -0.661458,1.28417 0,0.54054 -0.07441,1.35487 -0.165365,1.80962 -0.160634,0.80317 -0.206106,0.82682 -1.589742,0.82682 -1.269092,0 -1.398928,-0.0505 -1.190934,-0.46302 0.128394,-0.25466 0.406615,-0.9988 0.618269,-1.65365 0.348873,-1.07938 0.537385,-1.26297 2.017757,-1.96506 0.898113,-0.42594 1.632932,-0.84851 1.632932,-0.93903 0,-0.0905 -0.395201,-0.30751 -0.878225,-0.48217 -1.320251,-0.47741 -3.010612,-2.05219 -3.369249,-3.13887 -0.209574,-0.63502 -0.257012,-1.6991 -0.140026,-3.1409 l 0.176926,-2.18052 -0.792362,-0.27622 c -0.4358,-0.15192 -1.237825,-0.57891 -1.782278,-0.94888 -0.544453,-0.36996 -1.020813,-0.64176 -1.058579,-0.604 -0.03777,0.0378 0.157344,0.95735 0.433576,2.04351 0.527101,2.07261 0.737634,3.19277 0.773876,4.11748 0.01499,0.38257 0.35347,0.70471 1.088866,1.03633 1.147811,0.51759 1.082881,1.12285 -0.0733,0.68327 -0.596247,-0.2267 -0.69911,-0.18178 -0.836391,0.36519 -0.08609,0.34301 -0.543684,0.86525 -1.016871,1.16053 -0.473187,0.29527 -1.739123,1.42492 -2.813192,2.51033 -1.924513,1.94482 -1.948492,1.98596 -1.652453,2.83518 0.16522,0.47395 0.233857,0.92827 0.152528,1.0096 -0.251994,0.25199 -0.62466,-0.57655 -0.809626,-1.80004 -0.152115,-1.00618 -0.222082,-1.10755 -0.501071,-0.72601 -0.214546,0.29341 -0.258882,0.80103 -0.131028,1.50021 0.106282,0.58121 0.09771,1.05674 -0.01905,1.05674 -0.116762,0 -0.249603,-0.38695 -0.295203,-0.85989 -0.0456,-0.47295 -0.201972,-0.8599 -0.347493,-0.8599 -0.145521,0 -0.301892,0.38695 -0.347493,0.8599 -0.0456,0.47294 -0.201455,0.85989 -0.346344,0.85989 -0.144889,0 -0.202976,-0.0978 -0.129082,-0.21739 z m 4.021917,-6.3291 c -0.183488,-0.18349 -0.685456,0.18932 -0.685456,0.50909 0,0.17544 0.151813,0.15537 0.403269,-0.0533 0.221798,-0.18408 0.348782,-0.38917 0.282187,-0.45577 z m 36.356219,-1.33809 c 0,-0.34449 -0.60497,-0.84667 -1.01997,-0.84667 -0.30559,0 -0.28622,0.10911 0.0939,0.52917 0.49192,0.54356 0.92605,0.6924 0.92605,0.3175 z m -20.6874,-1.38614 c 0.31848,-0.29671 0.57906,-0.8518 0.57906,-1.23352 0,-0.38172 0.20605,-1.3477 0.45788,-2.14661 0.38233,-1.21287 0.61154,-1.52306 1.38906,-1.87977 0.51215,-0.23497 1.22884,-0.62683 1.59264,-0.87081 0.36381,-0.24398 1.64373,-0.75318 2.84427,-1.13155 2.07598,-0.65429 2.81726,-1.1941 1.63974,-1.1941 -1.00006,0 -4.33394,0.83268 -6.07151,1.51643 -2.68077,1.05493 -4.10432,1.36735 -5.152779,1.13089 -1.268756,-0.28615 -1.269391,-0.28423 -0.699295,2.11518 0.15559,0.65484 0.287362,1.60734 0.292827,2.11666 0.008,0.74277 0.17943,1.04061 0.866367,1.50491 1.08327,0.7322 1.53782,0.74673 2.26174,0.0723 z m 15.69715,-1.86455 c -0.34355,-0.27852 -0.83964,-0.5064 -1.10243,-0.5064 -0.2628,0 -0.53786,-0.14882 -0.61126,-0.33073 -0.0912,-0.22599 -0.14007,-0.20496 -0.15434,0.0664 -0.0201,0.38169 2.0889,1.62446 2.36036,1.3909 0.0728,-0.0626 -0.14879,-0.3417 -0.49233,-0.62021 z m -31.212881,-4.88101 c 0.569234,-0.51427 1.149211,-0.86443 1.288839,-0.77814 0.139627,0.0863 0.253867,-0.0687 0.253867,-0.3445 0,-0.38726 -0.360493,-0.60163 -1.583505,-0.94166 -0.870928,-0.24214 -1.624991,-0.44025 -1.675695,-0.44025 -0.0507,0 -0.09164,0.56554 -0.09096,1.25677 l 0.0012,1.25677 0.352308,-0.8599 c 0.193769,-0.47294 0.420957,-0.85989 0.504863,-0.85989 0.142071,0 -0.02353,1.11583 -0.323947,2.18281 -0.193116,0.68587 0.119773,0.56986 1.273001,-0.47201 z m 30.757881,-1.57133 c 0.19215,-0.78207 0.19012,-0.78373 -0.35575,-0.28972 -0.41104,0.37199 -0.54432,0.80236 -0.53036,1.71261 l 0.0186,1.21576 0.3371,-0.92604 c 0.18541,-0.50932 0.42407,-1.28 0.53037,-1.71261 z m -23.394341,1.18344 c -0.52126,-0.33686 -1.134235,-0.33686 -0.926041,0 0.08994,0.14552 0.424385,0.26276 0.743219,0.26054 0.471284,-0.003 0.505475,-0.052 0.182822,-0.26054 z m 28.287251,-1.52135 c -0.72008,-1.5075 -1.39657,-3.85898 -0.72312,-2.51354 0.44462,0.88827 0.62012,0.72841 0.65222,-0.59412 0.0159,-0.65419 0.17436,-1.54064 0.35216,-1.9699 l 0.32328,-0.78046 1.32057,1.04385 c 1.36662,1.08025 2.21414,1.40839 1.44636,0.56 -0.24084,-0.26612 -0.43788,-0.62518 -0.43788,-0.79792 0,-0.17274 0.32742,0.0422 0.7276,0.47763 0.68573,0.74614 4.30073,2.7309 4.54477,2.49524 0.0622,-0.06 -0.19872,-0.43529 -0.57971,-0.83396 -0.76881,-0.80446 -1.76744,-2.83175 -1.77644,-3.60628 -0.003,-0.2751 0.37124,0.2309 0.83208,1.12444 0.46083,0.89355 0.88168,1.58083 0.93522,1.5273 0.0535,-0.0535 -0.023,-0.61907 -0.16996,-1.25674 -0.14701,-0.63767 -0.27021,-1.92199 -0.27376,-2.85405 -0.006,-1.64416 -0.0213,-1.68118 -0.50595,-1.24263 -0.56545,0.51173 -2.97336,1.48292 -3.67055,1.48045 -0.2531,-9e-4 -0.76687,-0.16168 -1.14171,-0.35729 -0.66946,-0.34935 -0.68785,-0.33427 -1.03772,0.8507 -0.40663,1.37717 -1.89728,3.12185 -3.57316,4.18209 -0.8961,0.56692 -1.17076,0.91895 -1.29576,1.66079 -0.13593,0.8067 -0.0545,1.02636 0.56894,1.53538 0.8758,0.71502 1.38064,0.7891 0.76857,0.11277 -0.58204,-0.64315 -0.56258,-1.0334 0.0251,-0.504 0.6093,0.54884 2.76613,1.77436 3.12989,1.77842 0.15709,0.002 -0.0414,-0.68143 -0.44108,-1.51817 z m -39.928918,-1.57086 c 0,-0.61256 -0.649853,-0.36722 -1.012628,0.3823 -0.677068,1.39887 -0.649699,1.51295 0.17806,0.74218 0.459012,-0.42741 0.834568,-0.93342 0.834568,-1.12448 z m -1.584601,0.64482 c 0.684206,-1.12218 0.662866,-1.37418 -0.147641,-1.74347 -0.370649,-0.16888 -0.698071,-0.30722 -0.727604,-0.30741 -0.02953,-2e-4 -0.01291,0.65464 0.03694,1.4552 0.04985,0.80057 0.140895,1.45557 0.202326,1.45557 0.06143,0 0.347623,-0.38695 0.635982,-0.85989 z m 0.79085,-21.58722 c 0,-0.26033 -1.182223,-0.83622 -1.716626,-0.83622 -0.456762,0 -0.751388,0.43931 -0.532332,0.79375 0.197271,0.31919 2.248958,0.35793 2.248958,0.0425 z m -6.458903,-10.02915 c -0.284558,-0.28456 -0.435624,0.11397 -0.235871,0.62225 0.187379,0.47679 0.201531,0.47762 0.2942,0.0172 0.05354,-0.26606 0.0273,-0.55379 -0.05833,-0.63941 z m 3.81307,0.0322 c 0,-0.28103 -1.700771,-3.27471 -1.860434,-3.27471 -0.175484,0 -1.314566,2.28128 -1.314566,2.63273 0,0.19089 1.107185,0.47932 2.976562,0.77542 0.109141,0.0173 0.198438,-0.0428 0.198438,-0.13344 z m 64.161462,-12.23809 c 0.27959,-0.0371 -1.18144,-1.32956 -1.52135,-1.34586 -0.22419,-0.0108 -0.27395,1.1497 -0.0585,1.36511 0.12164,0.12164 0.55732,0.11633 1.57989,-0.0192 z m -75.040169,-3.56723 c 0.235478,-0.28373 0.07166,-0.51704 -0.775058,-1.10382 -0.952715,-0.66023 -2.4408,-2.32055 -3.345781,-3.73303 -0.173344,-0.27056 -0.322172,-0.37065 -0.33073,-0.22244 -0.0256,0.44337 3.608925,5.36969 3.98694,5.404 0.09132,0.008 0.300406,-0.14683 0.464629,-0.34471 z m 75.414999,-0.0147 c -0.27818,-0.27718 -2.3592,-0.42494 -2.3592,-0.16751 0,0.1538 0.55004,0.27736 1.23472,0.27736 0.6791,0 1.18511,-0.0494 1.12448,-0.10985 z m -72.108056,-3.54393 c 0.151733,-0.24551 -1.17151,-3.03697 -1.353401,-2.85508 -0.06579,0.0658 0.07331,0.7833 0.309119,1.59445 0.400049,1.37612 0.728131,1.77217 1.044282,1.26063 z M 69.39085,126.275 c 0,-0.14552 -0.0893,-0.26621 -0.198437,-0.2682 -0.109141,-0.002 -0.496094,-0.069 -0.859896,-0.14887 l -0.661459,-0.14526 0.661459,0.40408 c 0.781833,0.47762 1.058333,0.51896 1.058333,0.15825 z m 48.08251,-19.73902 c -0.0879,-0.0879 -0.31612,-0.0973 -0.50711,-0.0209 -0.21107,0.0845 -0.14838,0.14716 0.15985,0.15985 0.27891,0.0115 0.43518,-0.051 0.34726,-0.13896 z M 92.872399,181.6041 c -1.025042,-0.51379 -1.521846,-1.66227 -1.047567,-2.42172 0.430623,-0.68953 0.426996,-0.69695 -0.423789,-0.86711 -1.061338,-0.21227 -1.874838,-0.97621 -2.059694,-1.93422 -0.129341,-0.6703 -0.01714,-0.97739 0.594516,-1.62715 0.730865,-0.77639 2.473737,-1.37335 2.473737,-0.84728 0,0.14188 -0.334737,0.25797 -0.743859,0.25797 -1.057043,0 -1.901974,0.87945 -1.901974,1.97967 0,1.14672 0.773212,1.72449 2.30783,1.72449 0.622464,0 1.131754,0.0541 1.131754,0.12027 0,0.0661 -0.297657,0.41792 -0.661459,0.78172 -1.692191,1.69219 0.307751,3.23717 3.175,2.45273 0.612472,-0.16757 0.723078,-0.14524 0.484303,0.0978 -0.582855,0.5932 -2.401348,0.74772 -3.328798,0.28285 z m 38.048631,-8.0005 c 0.12128,-0.20078 0.76636,-1.07943 1.43351,-1.95256 0.66716,-0.87312 1.66634,-2.21275 2.2204,-2.97695 l 1.00739,-1.38945 -0.53822,-1.66598 c -0.29603,-0.91628 -0.68416,-2.01744 -0.86253,-2.447 l -0.3243,-0.78103 -0.1804,0.92604 c -0.15282,0.78447 -0.17933,0.70257 -0.17345,-0.53567 0.008,-1.77529 -0.61338,-2.90392 -1.5999,-2.90392 -0.56507,0 -0.63471,0.0871 -0.4761,0.59532 0.2343,0.75073 0.51969,5.14089 0.32222,4.95653 -0.0805,-0.0752 -0.22501,-1.02769 -0.32105,-2.11667 -0.1964,-2.22679 -0.80992,-3.78735 -1.54228,-3.92298 -0.28572,-0.0529 -0.86647,0.27299 -1.38906,0.7795 -1.03235,1.00059 -1.08679,1.18474 -0.40311,1.36352 0.37162,0.0972 0.56649,0.53554 0.78204,1.75925 0.1579,0.8964 0.1924,1.88576 0.0767,2.19859 -0.15223,0.41152 -0.26078,0.0267 -0.39262,-1.39189 -0.20011,-2.15304 -0.38255,-2.50438 -1.17056,-2.25427 -1.16046,0.36831 -1.55448,3.03139 -0.73534,4.96992 0.47033,1.11303 0.52043,1.52985 0.1839,1.52985 -0.12748,0 -0.45242,-0.77043 -0.72209,-1.71207 -0.26968,-0.94165 -0.56746,-1.62626 -0.66175,-1.52136 -0.0943,0.1049 -0.37702,0.82422 -0.6283,1.59849 -0.45587,1.40466 -2.25824,5.14284 -2.24927,4.66506 0.043,-2.29069 -0.29254,-9.71173 -0.46541,-10.29353 -0.21331,-0.71788 -0.42362,-0.83148 -2.59769,-1.40322 -1.30108,-0.34216 -3.37762,-1.04186 -4.61455,-1.5549 -1.23693,-0.51304 -2.51685,-0.9968 -2.84427,-1.07502 -0.32743,-0.0782 -0.59532,-0.22449 -0.59532,-0.32504 0,-0.10055 -0.50601,-0.40513 -1.12448,-0.67685 -0.61846,-0.27171 -2.09894,-1.06853 -3.28996,-1.77071 -1.19101,-0.70217 -2.35187,-1.27668 -2.57968,-1.27668 -0.85006,0 -0.36488,0.47904 1.19349,1.17839 0.88423,0.39682 1.54476,0.78442 1.46785,0.86134 -0.24519,0.24518 -4.4588,-1.83359 -6.51513,-3.21421 -2.772863,-1.8617 -6.018162,-5.21687 -7.293277,-7.5402 -0.572606,-1.04332 -1.249277,-2.27753 -1.503712,-2.74269 -0.254435,-0.46517 -0.471163,-1.20295 -0.481617,-1.63951 -0.04469,-1.86632 -0.26658,-1.8472 -2.276163,0.19609 -1.038895,1.05632 -2.220861,2.56585 -2.626591,3.35451 -0.405731,0.78866 -0.783673,1.29598 -0.839873,1.12738 -0.191392,-0.57417 3.007304,-5.77514 4.585652,-7.4561 0.651664,-0.69404 0.941188,-1.32071 1.155607,-2.5013 0.157353,-0.86639 0.422242,-1.69982 0.588641,-1.85208 0.222266,-0.20338 0.252031,-0.13642 0.112177,0.25233 -0.104702,0.29105 -0.241218,1.36261 -0.303369,2.38125 l -0.113,1.85209 0.360637,-1.39708 c 0.198351,-0.76839 0.455376,-1.48277 0.571167,-1.5875 0.115791,-0.10473 0.117019,0.0477 0.0027,0.33874 -0.11429,0.29105 -0.264636,1.42214 -0.334103,2.51355 -0.253903,3.9891 1.337846,7.52089 5.024629,11.1487 2.126441,2.09242 5.351855,4.46171 6.073925,4.46171 0.86303,0 0.62724,-0.38729 -0.93058,-1.52849 -1.86707,-1.36775 -5.651798,-4.95391 -6.065795,-5.74755 -0.15182,-0.29104 0.662681,0.37389 1.810001,1.47763 2.924474,2.8134 6.052564,5.06769 7.153164,5.15502 1.04906,0.0832 1.06607,0.0423 0.29068,-0.69868 l -0.59531,-0.56893 1.12658,0.56507 1.12659,0.56508 1.25466,-0.51607 c 0.69007,-0.28384 1.82283,-0.59209 2.51725,-0.68499 l 1.26258,-0.16892 -0.6829,-0.84281 c -2.57746,-3.181 -4.74468,-6.23067 -4.55943,-6.41592 0.0568,-0.0568 0.80676,0.85863 1.66662,2.03424 2.29699,3.14047 4.50683,5.45676 4.87091,5.10555 0.21703,-0.20936 0.16691,-0.45609 -0.18812,-0.92604 -1.85348,-2.45345 -6.40959,-11.55695 -6.41023,-12.8082 -7e-5,-0.14372 0.81538,1.4041 1.81212,3.43958 1.89372,3.86726 4.4663,8.30536 5.40432,9.32329 0.30172,0.32742 0.85525,0.59713 1.23007,0.59936 0.5313,0.003 0.5943,0.0592 0.2859,0.25414 -0.33961,0.21469 -0.32089,0.30891 0.13229,0.66579 2.06459,1.6259 6.88179,4.63227 7.42242,4.63227 0.13044,0 -0.50298,-0.43785 -1.4076,-0.973 -0.90462,-0.53515 -1.60325,-1.01452 -1.55251,-1.06526 0.0507,-0.0507 2.02717,0.85749 4.39207,2.0183 3.83208,1.88096 7.01059,3.08365 10.55177,3.99259 0.63315,0.16252 1.2005,0.24617 1.26078,0.18589 0.0603,-0.0603 -0.59652,-0.54544 -1.45955,-1.07814 -0.86303,-0.53269 -2.56148,-1.752 -3.77433,-2.70957 -2.3602,-1.86344 -9.21663,-8.6353 -9.21663,-9.10296 0,-0.15474 0.51201,0.29515 1.1378,0.99976 1.49429,1.68248 6.78489,6.64021 7.46116,6.99172 0.42181,0.21924 -0.313,-0.67905 -1.98546,-2.42721 -1.64688,-1.72143 -5.78319,-7.65833 -7.37849,-10.59045 -1.53311,-2.81782 -1.34287,-2.8697 0.39064,-0.10652 2.19915,3.50539 4.04274,5.98884 6.95677,9.37127 2.93266,3.40405 7.46911,7.93316 7.94601,7.93316 0.3336,0 0.3021,-0.32118 -0.40218,-4.10104 -0.40327,-2.16436 -2.60568,-9.42251 -3.54988,-11.69883 -0.35182,-0.84818 -0.39384,-1.0966 -0.12737,-0.75302 0.57043,0.7355 2.36472,5.45713 3.05227,8.03198 0.32232,1.20709 0.62814,2.15262 0.67959,2.10117 0.19501,-0.19502 -0.45021,-3.38066 -1.34876,-6.65919 -0.93909,-3.42648 -1.08998,-4.56952 -0.32621,-2.47124 0.80038,2.19886 1.25203,3.81468 2.01697,7.2158 l 0.77358,3.43958 1.41376,1.27927 c 1.35281,1.22413 3.32582,2.45312 3.56086,2.21808 0.0613,-0.0613 -0.37757,-0.45033 -0.97524,-0.86452 -1.05873,-0.7337 -3.25316,-3.02097 -3.07208,-3.20206 0.0498,-0.0498 0.67589,0.44681 1.39127,1.10361 1.80853,1.66041 5.09373,3.96175 6.17202,4.32361 0.8914,0.29914 0.88523,0.28615 -0.60617,-1.27744 -1.5786,-1.65499 -2.7408,-3.79642 -2.97923,-5.48943 -0.11812,-0.83874 0.0544,-0.61447 1.06126,1.37972 1.40451,2.78174 2.86281,4.77131 4.11648,5.61616 0.83748,0.56438 0.85331,0.60154 0.25614,0.60154 -0.8746,0 -5.13783,-1.47388 -6.5596,-2.26777 -0.64059,-0.3577 -1.18593,-0.61886 -1.21186,-0.58036 -0.0259,0.0385 -0.19667,0.78438 -0.3794,1.65751 -0.18273,0.87312 -0.73372,2.83766 -1.22442,4.36562 -0.4907,1.52797 -1.15107,3.6711 -1.46749,4.76251 l -0.57531,1.98437 -0.30041,-1.04493 -0.30041,-1.04494 -0.8853,1.37962 c -1.11323,1.73482 -3.42482,4.64639 -3.79457,4.77947 -0.17263,0.0621 -0.19501,-0.0388 -0.0587,-0.26458 z m -7.55112,-7.83954 c 0.003,-0.67051 0.0791,-0.87363 0.23566,-0.6265 0.28334,0.44738 0.43467,0.0101 0.68755,-1.98682 0.16469,-1.30058 0.13757,-1.38091 -0.65756,-1.94709 -0.45614,-0.3248 -0.8717,-0.54779 -0.92347,-0.49553 -0.0518,0.0522 10e-4,0.96244 0.11792,2.02264 0.11663,1.0602 0.16611,2.39965 0.10996,2.97656 -0.0574,0.58954 0.0135,1.04893 0.1619,1.04893 0.14519,0 0.26581,-0.44648 0.26804,-0.99219 z m 13.634,-2.48409 0.18808,-2.80776 -1.81984,-0.12501 c -1.00091,-0.0688 -1.86872,-0.0843 -1.92846,-0.0346 -0.0598,0.0497 0.31684,1.01388 0.83687,2.14256 0.52002,1.12867 1.02626,2.329 1.12497,2.66738 0.38893,1.33327 0.38227,0.28552 -0.009,-1.40122 -0.2283,-0.98438 -0.3663,-1.83856 -0.30669,-1.89817 0.12495,-0.12495 0.85895,2.45907 1.1294,3.97595 0.28275,1.58586 0.57176,0.65789 0.78458,-2.51913 z m -11.67142,-0.47841 c 0.3641,-1.36052 0.60147,-2.5716 0.5275,-2.6913 -0.074,-0.1197 0.0509,-0.57615 0.27748,-1.01434 l 0.41199,-0.7967 -2.41314,-1.21195 c -1.32723,-0.66658 -2.46079,-1.1643 -2.51904,-1.10606 -0.0582,0.0582 0.008,0.45263 0.14695,0.87641 0.13906,0.42378 0.376,1.25311 0.52654,1.84295 0.20494,0.803 0.57426,1.29765 1.46994,1.96875 0.74536,0.55848 1.15387,1.05178 1.08382,1.3088 -0.208,0.76325 -0.47291,3.58898 -0.32272,3.4423 0.0818,-0.0799 0.44659,-1.25835 0.81068,-2.61886 z m 2.73521,-2.57633 1.15505,-1.10706 -1.00686,-0.27801 c -1.36727,-0.37752 -1.83095,0.13402 -2.01913,2.22755 -0.13827,1.53831 -0.12939,1.56701 0.2866,0.92604 0.23611,-0.3638 0.94906,-1.15964 1.58434,-1.76852 z m 10.38573,0.64862 c 0.82191,-2.50947 0.82113,-2.90791 -0.009,-4.66359 -0.86948,-1.8385 -1.38758,-2.15553 -1.03394,-0.63266 0.12673,0.54571 0.23325,1.72641 0.23672,2.62379 0.004,1.04116 0.126,1.68745 0.33705,1.78594 0.26458,0.12347 0.26458,0.18521 0,0.30868 -0.18539,0.0865 -0.33073,0.62912 -0.33073,1.23472 0,1.32656 0.20578,1.15761 0.80007,-0.65688 z m -21.64947,-5.6239 c -2.28455,-2.25389 -4.33232,-4.09967 -4.55061,-4.10174 -0.60694,-0.006 -4.07259,0.84324 -4.31503,1.05707 -0.1177,0.10381 0.8348,0.82291 2.11667,1.598 2.3729,1.4348 10.29436,5.54464 10.68694,5.54464 0.11867,0 -1.65341,-1.84409 -3.93797,-4.09797 z m -1.27068,2.14278 c -1.7613,-0.92456 -4.36331,-2.41068 -5.78224,-3.30249 -2.28685,-1.43732 -3.84769,-2.01357 -3.84769,-1.42055 0,0.4901 6.10191,3.74583 10.58334,5.64683 2.78631,1.18194 2.46501,0.87062 -0.95341,-0.92379 z m 5.79855,-0.37662 c -0.2901,-1.15163 -0.58768,-1.74331 -0.97746,-1.94345 -0.30822,-0.15826 -1.4333,-0.93808 -2.50019,-1.73294 -1.06689,-0.79486 -1.98,-1.40499 -2.02913,-1.35586 -0.10959,0.10959 3.40376,4.48615 4.7313,5.89375 0.53037,0.56235 1.01566,0.9711 1.07843,0.90833 0.0628,-0.0628 -0.0736,-0.85919 -0.30295,-1.76983 z m -4.87902,-3.18 c -0.19965,-0.2666 -0.77287,-1.04051 -1.27383,-1.71979 -0.50095,-0.67929 -1.0665,-1.23507 -1.25677,-1.23507 -0.19026,0 -0.34594,0.0469 -0.34594,0.10427 0,0.15686 2.96633,3.33531 3.11273,3.33531 0.0698,0 -0.0365,-0.21812 -0.23619,-0.48472 z m 8.30211,18.05868 c 0.25466,-0.3025 0.46302,-0.703 0.46302,-0.89001 0,-0.49081 1.1115,-2.39644 1.39777,-2.39644 0.1331,0 -0.008,0.42352 -0.3133,0.94116 -0.68769,1.16555 -0.68744,1.17315 0.04,1.1861 0.53806,0.01 0.51897,0.0509 -0.19844,0.42999 -0.43656,0.23066 -1.03187,0.61285 -1.32292,0.8493 -0.51657,0.41968 -0.51815,0.41682 -0.0661,-0.1201 z m 2.84427,-0.66073 c -0.29905,-0.20841 -0.19962,-0.23806 0.40343,-0.1203 0.66679,0.13021 0.93737,0.0115 1.6219,-0.71155 0.45187,-0.47731 0.96459,-1.14592 1.13936,-1.48581 0.17477,-0.33988 0.38378,-0.55196 0.46446,-0.47127 0.19037,0.19036 -0.61699,1.42026 -1.54005,2.34602 -0.76201,0.76424 -1.42602,0.90502 -2.0891,0.44291 z m 5.85384,-5.25833 c -0.0204,-1.05646 0.0608,-1.61081 0.2133,-1.45521 0.14498,0.14796 0.15856,0.84998 0.033,1.70657 l -0.21329,1.4552 z m -27.18149,-3.07687 c -0.99406,-0.49043 -2.36475,-1.88988 -2.59143,-2.64581 -0.15141,-0.50494 0.039,-0.59693 2.321,-1.12111 1.36728,-0.31408 3.67239,-0.6488 5.12247,-0.74383 l 2.63652,-0.17278 -0.13061,0.89702 c -0.19165,1.31622 -0.77877,2.05511 -2.53483,3.19011 -1.7611,1.13825 -3.33128,1.33241 -4.82312,0.5964 z m 3.74843,-2.606 c 0.48074,-0.35381 0.48377,-0.38954 0.0473,-0.55873 -0.55799,-0.21629 -2.84102,0.0888 -2.84102,0.37965 0,0.65955 1.96932,0.78578 2.7937,0.17908 z m -29.516619,-1.9848 c -1.226114,-0.0932 -1.852021,-0.23625 -1.638004,-0.37449 0.379833,-0.24533 3.835101,0.0297 4.680713,0.3725 0.612753,0.24845 0.204504,0.24871 -3.042709,0.002 z m 24.341669,-0.23893 c 0.75532,-0.4956 3.6541,-1.10229 5.06528,-1.06012 0.99059,0.0296 1.13834,0.0712 0.49097,0.13814 -1.03035,0.10659 -4.76566,0.81292 -5.48872,1.03789 -0.38289,0.11914 -0.39474,0.0988 -0.0675,-0.11591 z m -41.233227,-4.01288 c 0,-0.3638 0.06005,-0.51263 0.133452,-0.33073 0.0734,0.1819 0.0734,0.47956 0,0.66146 -0.0734,0.1819 -0.133452,0.0331 -0.133452,-0.33073 z m 11.868526,-17.2218 c -0.0065,-0.67372 1.487136,-3.4646 2.394405,-4.47403 0.489749,-0.5449 0.658663,-0.6538 0.410399,-0.26459 -1.320197,2.06972 -2.280191,3.77179 -2.28374,4.04907 -0.0022,0.17411 -0.119468,0.49515 -0.260532,0.71343 -0.224492,0.34738 -0.256986,0.3444 -0.260532,-0.0239 z m 5.698695,-7.96711 c -0.536101,-0.62542 -1.413455,-2.02522 -1.949675,-3.11066 -0.965997,-1.9554 -0.974751,-2.00276 -0.953628,-5.15937 0.01486,-2.22067 0.142731,-3.46655 0.422075,-4.11236 0.525337,-1.21451 4.098397,-5.92716 5.516242,-7.27558 0.751129,-0.71435 0.25807,0.0596 -1.516991,2.38125 -1.446397,1.89177 -2.886614,3.8667 -3.200481,4.38874 -1.0667,1.77416 -1.222344,5.21537 -0.364289,8.05421 0.444317,1.47001 2.441218,5.01443 3.080737,5.46819 0.142669,0.10123 0.1877,0.25575 0.100069,0.34338 -0.08763,0.0876 -0.597958,-0.35238 -1.134059,-0.9778 z m 33.720176,-2.27466 c 0,-0.14552 0.65795,-0.86591 1.4621,-1.60087 1.4524,-1.3274 4.02932,-2.75322 5.54936,-3.07047 0.43656,-0.0911 -0.29523,0.37242 -1.6262,1.03007 -1.39789,0.69071 -3.04615,1.76803 -3.90261,2.55079 -0.81546,0.74528 -1.48265,1.236 -1.48265,1.09048 z m -35.849462,-6.7939 c 0.160693,-1.54401 1.214092,-3.90684 2.860466,-6.41617 1.41252,-2.15291 4.139278,-5.46219 4.337424,-5.26404 0.07798,0.078 -0.360947,0.71249 -0.975383,1.41004 -1.247226,1.41592 -3.578389,4.8729 -4.512801,6.69222 -0.336331,0.65484 -0.889442,2.02406 -1.229134,3.04271 l -0.617623,1.85208 z"
       id="path1" /></g></svg>
